<?xml version="1.0" encoding="utf-8"?>
<!-- Generator: Adobe Illustrator 27.4.0, SVG Export Plug-In . SVG Version: 6.00 Build 0)  -->
<svg version="1.1" id="Layer_1" xmlns="http://www.w3.org/2000/svg" xmlns:xlink="http://www.w3.org/1999/xlink" x="0px" y="0px"
	 viewBox="0 0 675 840" style="enable-background:new 0 0 675 840;" xml:space="preserve">
<style type="text/css">
	.st0{fill:#DADBDC;}
	.st1{fill:#FFFFFF;}
	.st2{fill:#8EFFAD;}
	.st3{fill:#F3A3A6;}
	.st4{fill:#2F2E43;}
	.st5{fill:#3F3D58;}
</style>
<g>
	<path class="st0" d="M567.1,826.7H307.6c-37.7,0-68.5-30.7-68.5-68.5V80.5c0-37.7,30.7-68.5,68.5-68.5h259.5
		c37.7,0,68.5,30.7,68.5,68.5v677.7C635.6,796,604.8,826.7,567.1,826.7z"/>
	<path class="st1" d="M567.3,808.1H307.4c-27.9,0-50.7-22.7-50.7-50.7V79.9c0-27.9,22.7-50.7,50.7-50.7h259.9
		c27.9,0,50.7,22.7,50.7,50.7v677.6C618,785.4,595.2,808.1,567.3,808.1z"/>
	<path class="st0" d="M474.1,74.3h-73.5c-9.7,0-17.6-7.9-17.6-17.6s7.9-17.6,17.6-17.6h73.5c9.7,0,17.6,7.9,17.6,17.6
		S483.8,74.3,474.1,74.3z"/>
</g>
<g>
	<path class="st0" d="M549.1,281.2H334c-4.3,0-7.7-4.4-7.7-9.8c0-5.4,3.5-9.8,7.7-9.8h215.1c4.3,0,7.7,4.4,7.7,9.8
		C556.8,276.8,553.3,281.2,549.1,281.2z"/>
	<path class="st0" d="M549.1,324.7H334c-4.3,0-7.7-4.4-7.7-9.8c0-5.4,3.5-9.8,7.7-9.8h215.1c4.3,0,7.7,4.4,7.7,9.8
		C556.8,320.3,553.3,324.7,549.1,324.7z"/>
	<path class="st0" d="M487.4,368.2H334c-4.3,0-7.7-4.4-7.7-9.8s3.5-9.8,7.7-9.8h153.4c4.3,0,7.7,4.4,7.7,9.8
		S491.7,368.2,487.4,368.2z"/>
</g>
<g>
	<circle class="st2" cx="437.3" cy="532" r="91.8"/>
	<path class="st1" d="M412.9,533.9c4.7,9.3,9.5,18.6,14.2,27.9c1.4,2.7,5.3,1.8,6.1-0.8c6.2-20.7,17.8-39.7,33.4-54.7
		c3.1-3-1.6-7.8-4.8-4.8c-16.4,15.8-28.5,35.8-35.1,57.7l6.1-0.8c-4.7-9.3-9.5-18.6-14.2-27.9C416.7,526.6,410.9,530,412.9,533.9
		L412.9,533.9L412.9,533.9z"/>
</g>
<g>
	<polygon class="st3" points="189.9,420.9 167.6,428.5 167.3,396.4 187.5,396.2 	"/>
	<circle class="st3" cx="169.9" cy="383" r="22.3"/>
	<path class="st4" d="M175.9,380.7c-3.7-0.1-6.2-3.8-7.7-7.2c-1.5-3.4-3-7.4-6.5-8.7c-2.8-1.1-7.7,6.8-10,4.7
		c-2.4-2.2-0.2-13.4,2.2-15.4s5.8-2.5,9-2.6c7.8-0.4,15.5,0.1,23.2,1.6c4.7,0.9,9.6,2.4,13,5.7c4.3,4.3,5.5,10.8,5.9,16.8
		c0.4,6.2,0.1,12.7-2.9,18.2c-3,5.5-9.2,9.6-15.3,8.2c-0.6-3.3-0.1-6.7,0.1-10c0.2-3.3-0.1-7-2.2-9.6c-2.1-2.6-6.5-3.7-8.8-1.3"/>
	<path class="st4" d="M203.4,388.1c2.2-1.7,4.9-3.1,7.6-2.7c3,0.3,5.5,2.7,6.3,5.6c0.8,2.9,0,6.1-1.8,8.4s-4.5,4-7.4,4.8
		c-1.7,0.5-3.5,0.7-5.1,0c-2.4-1-3.6-4-2.8-6.3"/>
	<g>
		<path id="uuid-334169b2-d322-42da-b25f-a4a8dc7931c2-163" class="st3" d="M120.6,598.4c-1.4,7.3,1.4,14,6.2,14.8
			c4.8,0.9,9.9-4.4,11.3-11.7c0.6-2.9,0.5-5.9-0.4-8.8L154.9,478l-23.1-4.1l-7.6,116.4C122.4,592.7,121.1,595.5,120.6,598.4
			L120.6,598.4L120.6,598.4z"/>
		<path class="st2" d="M167.2,413.8l-15.7,0.2c-11.1,1.8-14,7.8-16.4,18.7c-3.7,16.7-8.3,39-7.4,39.3c1.6,0.5,28.5,12.8,42.1,9.8
			L167.2,413.8z"/>
	</g>
	
		<rect x="165.7" y="778.7" transform="matrix(0.9999 -1.116988e-02 1.116988e-02 0.9999 -8.8526 2.0176)" class="st3" width="20.9" height="29.7"/>
	<path class="st4" d="M145.7,826.7c-2.2,0-4.2,0-5.6-0.1c-5.6-0.4-10.9-4.5-13.6-6.9c-1.2-1.1-1.6-2.8-1-4.3l0,0
		c0.4-1.1,1.3-1.9,2.4-2.2l14.6-4.4l23.6-16.3l0.3,0.5c0.1,0.2,2.5,4.4,3.3,7.2c0.3,1.1,0.2,2-0.2,2.7c-0.3,0.5-0.7,0.8-1.1,0.9
		c0.4,0.4,1.8,1.3,6,2c6.1,0.9,7.3-5.4,7.3-5.7l0-0.2l0.2-0.1c2.9-1.9,4.6-2.8,5.2-2.6c0.4,0.1,1,0.3,2.9,17.4
		c0.2,0.5,1.4,4.5,0.6,8.2c-0.8,4.1-18.8,2.9-22.3,2.6C168.2,825.5,154.8,826.6,145.7,826.7L145.7,826.7L145.7,826.7z"/>
	
		<rect x="234.5" y="757.9" transform="matrix(0.8425 -0.5386 0.5386 0.8425 -377.6302 253.5919)" class="st3" width="20.9" height="29.7"/>
	<path class="st4" d="M222.9,821.7c-2.5,0-4.7-0.2-6.3-0.5c-1.6-0.3-2.8-1.5-3.1-3.1l0,0c-0.2-1.1,0.1-2.3,0.9-3.1l10.1-11.4
		l11.4-26.3l0.5,0.3c0.2,0.1,4.4,2.4,6.6,4.4c0.8,0.8,1.2,1.5,1.2,2.4c0,0.6-0.2,1-0.4,1.4c0.6,0.1,2.2,0.2,6.1-1.5
		c5.6-2.4,3.3-8.4,3.2-8.7l-0.1-0.2l0.1-0.2c1.4-3.1,2.5-4.8,3.1-5c0.4-0.1,1-0.3,11.7,13.2c0.4,0.4,3.6,3,4.9,6.6
		c1.5,3.9-14.4,12.4-17.6,14c-0.1,0.1-16.6,12.4-23.4,15.9C229,821.2,225.8,821.7,222.9,821.7L222.9,821.7L222.9,821.7z"/>
	<path class="st4" d="M199.1,530.3l-58.5,0.6l-4.7,54.5l25.5,201l29.9-0.3L178,670l49.6,104.4l26.4-18.9L215,658
		c0,0,12.6-85.5,1.7-106.6C205.9,530.2,199.1,530.3,199.1,530.3L199.1,530.3L199.1,530.3z"/>
	<polygon class="st2" points="228.2,533.3 135.3,534.4 161.8,413.9 202.3,413.4 	"/>
	<path id="uuid-9df903d1-1d84-4918-8ddd-e6aaf747ef0f-164" class="st3" d="M237.3,597.1c1.6,7.3-1.1,14-5.9,15
		c-4.8,1-10-4.1-11.6-11.4c-0.7-2.9-0.6-5.9,0.2-8.8l-19.7-114.4l23-4.6l10.2,116.2C235.4,591.4,236.7,594.2,237.3,597.1
		L237.3,597.1L237.3,597.1z"/>
	<path class="st2" d="M186.6,413.6l15.7-0.2c11.1,1.6,14.2,7.5,16.9,18.4c4,16.7,9.2,38.8,8.2,39.2c-1.6,0.5-28.2,13.4-41.8,10.7
		L186.6,413.6L186.6,413.6z"/>
</g>
<path class="st5" d="M328.5,826.7c0,0.7-0.6,1.3-1.3,1.3H40.8c-0.7,0-1.3-0.6-1.3-1.3c0-0.7,0.6-1.3,1.3-1.3h286.4
	C327.9,825.3,328.5,825.9,328.5,826.7L328.5,826.7L328.5,826.7z"/>
</svg>
