<?xml version="1.0" encoding="utf-8"?>
<!-- Generator: Adobe Illustrator 27.4.0, SVG Export Plug-In . SVG Version: 6.00 Build 0)  -->
<svg version="1.1" id="Layer_1" xmlns="http://www.w3.org/2000/svg" xmlns:xlink="http://www.w3.org/1999/xlink" x="0px" y="0px"
	 viewBox="0 0 675 840" style="enable-background:new 0 0 675 840;" xml:space="preserve">
<style type="text/css">
	.st0{fill:#FF6584;}
	.st1{fill:#F2F2F2;}
	.st2{fill:#3F3D56;}
	.st3{fill:#E6E6E6;}
	.st4{fill:#CCCCCC;}
	.st5{fill:#8EFFAD;}
	.st6{fill:#FFB8B8;}
	.st7{fill:#2F2E41;}
	.st8{fill:#FFFFFF;}
	.st9{fill:#A0616A;}
</style>
<circle class="st0" cx="98.4" cy="515.4" r="42.6"/>
<path class="st1" d="M190.3,748.5L190.3,748.5c-3.2,0-5.7-3.5-5.7-7.9V276.2c0-4.4,2.5-7.9,5.7-7.9h279.3c3.1,0,5.6,3.5,5.7,7.9
	v361.1c0,4.3-2.5,7.9-5.6,7.9L190.3,748.5z"/>
<path class="st2" d="M392,171.6H262.4V96.5c0-3.3,2.7-6,6-6h117.7c3.3,0,6,2.7,6,6L392,171.6L392,171.6z M263.7,170.3h127V96.5
	c0-2.6-2.1-4.7-4.7-4.7H268.3c-2.6,0-4.7,2.1-4.7,4.7v73.8H263.7z"/>
<path class="st3" d="M299.3,119.1h55.9c2.9,0,5.3,2.4,5.3,5.3v79.8l0,0H294l0,0v-79.8C293.9,121.5,296.3,119.1,299.3,119.1
	L299.3,119.1z"/>
<path class="st2" d="M310.2,91.8h-27.3V64.6c0-1.8,1.5-3.3,3.3-3.3h20.6c1.8,0,3.3,1.5,3.3,3.3v27.2H310.2z M284.3,90.5h24.6V64.6
	c0-1.1-0.9-2-2-2h-20.6c-1.1,0-2,0.9-2,2V90.5z"/>
<path class="st2" d="M534.3,686.8c-0.3,0-0.5,0-0.8,0c-16.5-0.2-32.3-6.4-44.5-17.4c-0.5-0.4-0.9-0.8-1.3-1.2l-0.2-0.2V540.5
	l0.1-0.1c0.4-0.9,0.9-1.9,1.3-2.8c13.8-28.1,30-43.5,45.4-43.5c22.3,0,39.6,30.6,47.9,48.8c11.6,25.4,19.7,56.8,19.7,76.4
	c0,37-29.8,67.1-66.8,67.5C534.8,686.8,534.5,686.8,534.3,686.8z M488.8,667.4c0.4,0.3,0.7,0.7,1.1,1c12,10.8,27.5,16.9,43.6,17
	c0.3,0,0.5,0,0.8,0c0.2,0,0.5,0,0.7,0c36.1-0.4,65.5-30.1,65.5-66.2c0-19.5-8-50.6-19.5-75.8c-8.2-17.9-25.1-48-46.7-48
	c-14.9,0-30.6,15.2-44.2,42.8c-0.4,0.9-0.8,1.7-1.3,2.6V667.4z"/>
<path class="st4" d="M534.3,767.4c-0.4,0-0.8-0.3-0.8-0.8V610.5c0-0.4,0.3-0.8,0.8-0.8c0.4,0,0.8,0.3,0.8,0.8l0,0v156.2
	C535,767.1,534.7,767.4,534.3,767.4z"/>
<path class="st4" d="M137.3,767.4c-0.4,0-0.8-0.3-0.8-0.8V610.5c0-0.4,0.3-0.8,0.8-0.8c0.4,0,0.8,0.3,0.8,0.8l0,0v156.2
	C138,767.1,137.7,767.4,137.3,767.4z"/>
<path class="st4" d="M534.3,639.7c-0.2,0-0.4-0.1-0.6-0.3L495.2,595c-0.3-0.3-0.2-0.8,0.1-1.1c0.3-0.3,0.8-0.2,1.1,0.1l38.5,44.4
	c0.3,0.3,0.2,0.8-0.1,1.1C534.6,639.6,534.4,639.7,534.3,639.7z"/>
<path class="st4" d="M534.3,665.3c-0.4,0-0.8-0.3-0.8-0.8c0-0.2,0.1-0.4,0.2-0.5l21.9-21.9c0.3-0.3,0.8-0.3,1.1,0s0.3,0.8,0,1.1
	l-21.9,21.9C534.7,665.2,534.5,665.3,534.3,665.3z"/>
<path class="st2" d="M605.1,767.8h-57.2v-0.7c0-15.8,12.8-28.6,28.6-28.6s28.6,12.8,28.6,28.6l0,0L605.1,767.8L605.1,767.8z
	 M549.2,766.4h54.5c-0.4-15.1-12.9-27-27.9-26.6C561.3,740.2,549.6,751.9,549.2,766.4L549.2,766.4z"/>
<path class="st2" d="M576.5,750.9c-0.4,0-0.8,0.3-0.8,0.8v8l-7.8-6.7c-0.3-0.3-0.8-0.2-1.1,0.1s-0.2,0.8,0.1,1.1l0,0l8.8,7.5v4.7
	c0,0.4,0.3,0.8,0.8,0.8c0.4,0,0.8-0.3,0.8-0.8l0,0v-14.7C577.2,751.2,576.9,750.9,576.5,750.9z"/>
<path class="st2" d="M125.6,767.8H68.4v-0.7c0-15.8,12.8-28.6,28.6-28.6s28.6,12.8,28.6,28.6V767.8z M69.7,766.4h54.5
	c-0.4-15.1-12.9-27-27.9-26.6C81.8,740.2,70.1,751.9,69.7,766.4L69.7,766.4z"/>
<path class="st2" d="M97,750.9c-0.4,0-0.8,0.3-0.8,0.8v8l-7.8-6.7c-0.3-0.3-0.8-0.2-1.1,0.1c-0.3,0.3-0.2,0.8,0.1,1.1l0,0l8.8,7.5
	v4.7c0,0.4,0.3,0.8,0.8,0.8c0.4,0,0.8-0.3,0.8-0.8l0,0v-14.7C97.8,751.2,97.4,750.9,97,750.9z"/>
<path class="st2" d="M137.9,686.8c-0.3,0-0.5,0-0.8,0c-37-0.4-66.8-30.5-66.8-67.5c0-19.6,8.1-51,19.7-76.4
	c8.3-18.2,25.6-48.8,47.9-48.8c9.2,0,18.4,5.2,27.5,15.6c0.4,0.5,0.9,1,1.3,1.6l0.2,0.2v168.9l-0.4,0.2c-0.4,0.2-0.9,0.4-1.4,0.6
	c-8.3,3.7-17.4,5.6-26.5,5.7C138.5,686.8,138.2,686.8,137.9,686.8z M137.9,495.4c-21.6,0-38.5,30.1-46.7,48
	c-11.5,25.2-19.5,56.4-19.5,75.8c0,36.1,29.4,65.8,65.5,66.2c0.3,0,0.5,0,0.8,0c0.2,0,0.5,0,0.7,0c9-0.1,17.8-2,26-5.6
	c0.3-0.1,0.6-0.3,0.9-0.4V511.9c-0.4-0.5-0.8-0.9-1.2-1.4C155.6,500.5,146.7,495.4,137.9,495.4z"/>
<path class="st4" d="M137.9,639.7c-0.2,0-0.4-0.1-0.6-0.3L98.9,595c-0.3-0.3-0.2-0.8,0.1-1.1c0.3-0.3,0.8-0.2,1.1,0.1l38.5,44.4
	c0.3,0.3,0.2,0.8-0.1,1.1C138.3,639.6,138.1,639.7,137.9,639.7z"/>
<path class="st4" d="M137.9,665.3c-0.4,0-0.8-0.3-0.8-0.8c0-0.2,0.1-0.4,0.2-0.5l21.9-21.9c0.3-0.3,0.8-0.3,1.1,0s0.3,0.8,0,1.1
	l-21.8,21.9C138.3,665.2,138.1,665.3,137.9,665.3z"/>
<path class="st2" d="M198,180l0.5,1.4c0.2,0.6,0.3,1.3,0.3,2v39h23.3v-39c0-0.7,0.1-1.4,0.3-2l0.5-1.4H198z M220.8,183.4v37h-20.6
	v-37c0-0.5,0-1-0.1-1.5H221C220.8,182.4,220.8,182.9,220.8,183.4L220.8,183.4z M227.3,180l0.5,1.4c0.2,0.6,0.3,1.3,0.3,2v39h23.3
	v-39c0-0.7,0.1-1.4,0.3-2l0.5-1.4H227.3z M250.1,183.4v37h-20.6v-37c0-0.5,0-1-0.1-1.5h20.9C250.1,182.4,250.1,182.9,250.1,183.4
	L250.1,183.4z M256.5,180l0.5,1.4c0.2,0.6,0.3,1.3,0.3,2v39h23.3v-39c0-0.7,0.1-1.4,0.3-2l0.5-1.4H256.5z M279.3,183.4v37h-20.6v-37
	c0-0.5,0-1-0.1-1.5h20.9C279.4,182.4,279.3,182.9,279.3,183.4L279.3,183.4z M285.8,180l0.5,1.4c0.2,0.6,0.3,1.3,0.3,2v39h23.3v-39
	c0-0.7,0.1-1.4,0.3-2l0.5-1.4H285.8z M308.6,183.4v37H288v-37c0-0.5,0-1-0.1-1.5h20.9C308.6,182.4,308.6,182.9,308.6,183.4z
	 M315.1,180l0.5,1.4c0.2,0.6,0.3,1.3,0.3,2v39h23.3v-39c0-0.7,0.1-1.4,0.3-2l0.5-1.4H315.1z M337.8,183.4v37h-20.6v-37
	c0-0.5,0-1-0.1-1.5H338C337.9,182.4,337.8,182.9,337.8,183.4z M344.3,180l0.5,1.4c0.2,0.6,0.3,1.3,0.3,2v39h23.3v-39
	c0-0.7,0.1-1.4,0.3-2l0.5-1.4H344.3z M367.1,183.4v37h-20.6v-37c0-0.5,0-1-0.1-1.5h20.9C367.1,182.4,367.1,182.9,367.1,183.4z
	 M373.6,180l0.5,1.4c0.2,0.6,0.3,1.3,0.3,2v39h23.3v-39c0-0.7,0.1-1.4,0.3-2l0.5-1.4H373.6z M396.3,183.4v37h-20.6v-37
	c0-0.5,0-1-0.1-1.5h20.9C396.4,182.4,396.3,182.9,396.3,183.4z M402.8,180l0.5,1.4c0.2,0.6,0.3,1.3,0.3,2v39h23.3v-39
	c0-0.7,0.1-1.4,0.3-2l0.5-1.4H402.8z M425.6,183.4v37H405v-37c0-0.5,0-1-0.1-1.5h20.9C425.6,182.4,425.6,182.9,425.6,183.4z
	 M432.1,180l0.5,1.4c0.2,0.6,0.3,1.3,0.3,2v39h23.3v-39c0-0.7,0.1-1.4,0.3-2l0.5-1.4H432.1z M454.9,183.4v37h-20.6v-37
	c0-0.5,0-1-0.1-1.5h20.9C454.9,182.4,454.9,182.9,454.9,183.4z M432.1,180l0.5,1.4c0.2,0.6,0.3,1.3,0.3,2v39h23.3v-39
	c0-0.7,0.1-1.4,0.3-2l0.5-1.4H432.1z M454.9,183.4v37h-20.6v-37c0-0.5,0-1-0.1-1.5h20.9C454.9,182.4,454.9,182.9,454.9,183.4z
	 M402.8,180l0.5,1.4c0.2,0.6,0.3,1.3,0.3,2v39h23.3v-39c0-0.7,0.1-1.4,0.3-2l0.5-1.4H402.8z M425.6,183.4v37H405v-37
	c0-0.5,0-1-0.1-1.5h20.9C425.6,182.4,425.6,182.9,425.6,183.4z M373.6,180l0.5,1.4c0.2,0.6,0.3,1.3,0.3,2v39h23.3v-39
	c0-0.7,0.1-1.4,0.3-2l0.5-1.4H373.6z M396.3,183.4v37h-20.6v-37c0-0.5,0-1-0.1-1.5h20.9C396.4,182.4,396.3,182.9,396.3,183.4z
	 M344.3,180l0.5,1.4c0.2,0.6,0.3,1.3,0.3,2v39h23.3v-39c0-0.7,0.1-1.4,0.3-2l0.5-1.4H344.3z M367.1,183.4v37h-20.6v-37
	c0-0.5,0-1-0.1-1.5h20.9C367.1,182.4,367.1,182.9,367.1,183.4z M315.1,180l0.5,1.4c0.2,0.6,0.3,1.3,0.3,2v39h23.3v-39
	c0-0.7,0.1-1.4,0.3-2l0.5-1.4H315.1z M337.8,183.4v37h-20.6v-37c0-0.5,0-1-0.1-1.5H338C337.9,182.4,337.8,182.9,337.8,183.4z
	 M285.8,180l0.5,1.4c0.2,0.6,0.3,1.3,0.3,2v39h23.3v-39c0-0.7,0.1-1.4,0.3-2l0.5-1.4H285.8z M308.6,183.4v37H288v-37
	c0-0.5,0-1-0.1-1.5h20.9C308.6,182.4,308.6,182.9,308.6,183.4z M256.5,180l0.5,1.4c0.2,0.6,0.3,1.3,0.3,2v39h23.3v-39
	c0-0.7,0.1-1.4,0.3-2l0.5-1.4H256.5z M279.3,183.4v37h-20.6v-37c0-0.5,0-1-0.1-1.5h20.9C279.4,182.4,279.3,182.9,279.3,183.4
	L279.3,183.4z M227.3,180l0.5,1.4c0.2,0.6,0.3,1.3,0.3,2v39h23.3v-39c0-0.7,0.1-1.4,0.3-2l0.5-1.4H227.3z M250.1,183.4v37h-20.6v-37
	c0-0.5,0-1-0.1-1.5h20.9C250.1,182.4,250.1,182.9,250.1,183.4L250.1,183.4z M198,180l0.5,1.4c0.2,0.6,0.3,1.3,0.3,2v39h23.3v-39
	c0-0.7,0.1-1.4,0.3-2l0.5-1.4H198z M220.8,183.4v37h-20.6v-37c0-0.5,0-1-0.1-1.5H221C220.8,182.4,220.8,182.9,220.8,183.4
	L220.8,183.4z M432.1,180l0.5,1.4c0.2,0.6,0.3,1.3,0.3,2v39h23.3v-39c0-0.7,0.1-1.4,0.3-2l0.5-1.4H432.1z M454.9,183.4v37h-20.6v-37
	c0-0.5,0-1-0.1-1.5h20.9C454.9,182.4,454.9,182.9,454.9,183.4z M402.8,180l0.5,1.4c0.2,0.6,0.3,1.3,0.3,2v39h23.3v-39
	c0-0.7,0.1-1.4,0.3-2l0.5-1.4H402.8z M425.6,183.4v37H405v-37c0-0.5,0-1-0.1-1.5h20.9C425.6,182.4,425.6,182.9,425.6,183.4z
	 M373.6,180l0.5,1.4c0.2,0.6,0.3,1.3,0.3,2v39h23.3v-39c0-0.7,0.1-1.4,0.3-2l0.5-1.4H373.6z M396.3,183.4v37h-20.6v-37
	c0-0.5,0-1-0.1-1.5h20.9C396.4,182.4,396.3,182.9,396.3,183.4z M344.3,180l0.5,1.4c0.2,0.6,0.3,1.3,0.3,2v39h23.3v-39
	c0-0.7,0.1-1.4,0.3-2l0.5-1.4H344.3z M367.1,183.4v37h-20.6v-37c0-0.5,0-1-0.1-1.5h20.9C367.1,182.4,367.1,182.9,367.1,183.4z
	 M315.1,180l0.5,1.4c0.2,0.6,0.3,1.3,0.3,2v39h23.3v-39c0-0.7,0.1-1.4,0.3-2l0.5-1.4H315.1z M337.8,183.4v37h-20.6v-37
	c0-0.5,0-1-0.1-1.5H338C337.9,182.4,337.8,182.9,337.8,183.4z M285.8,180l0.5,1.4c0.2,0.6,0.3,1.3,0.3,2v39h23.3v-39
	c0-0.7,0.1-1.4,0.3-2l0.5-1.4H285.8z M308.6,183.4v37H288v-37c0-0.5,0-1-0.1-1.5h20.9C308.6,182.4,308.6,182.9,308.6,183.4z
	 M256.5,180l0.5,1.4c0.2,0.6,0.3,1.3,0.3,2v39h23.3v-39c0-0.7,0.1-1.4,0.3-2l0.5-1.4H256.5z M279.3,183.4v37h-20.6v-37
	c0-0.5,0-1-0.1-1.5h20.9C279.4,182.4,279.3,182.9,279.3,183.4L279.3,183.4z M227.3,180l0.5,1.4c0.2,0.6,0.3,1.3,0.3,2v39h23.3v-39
	c0-0.7,0.1-1.4,0.3-2l0.5-1.4H227.3z M250.1,183.4v37h-20.6v-37c0-0.5,0-1-0.1-1.5h20.9C250.1,182.4,250.1,182.9,250.1,183.4
	L250.1,183.4z M198,180l0.5,1.4c0.2,0.6,0.3,1.3,0.3,2v39h23.3v-39c0-0.7,0.1-1.4,0.3-2l0.5-1.4H198z M220.8,183.4v37h-20.6v-37
	c0-0.5,0-1-0.1-1.5H221C220.8,182.4,220.8,182.9,220.8,183.4L220.8,183.4z M432.1,180l0.5,1.4c0.2,0.6,0.3,1.3,0.3,2v39h23.3v-39
	c0-0.7,0.1-1.4,0.3-2l0.5-1.4H432.1z M454.9,183.4v37h-20.6v-37c0-0.5,0-1-0.1-1.5h20.9C454.9,182.4,454.9,182.9,454.9,183.4z
	 M402.8,180l0.5,1.4c0.2,0.6,0.3,1.3,0.3,2v39h23.3v-39c0-0.7,0.1-1.4,0.3-2l0.5-1.4H402.8z M425.6,183.4v37H405v-37
	c0-0.5,0-1-0.1-1.5h20.9C425.6,182.4,425.6,182.9,425.6,183.4z M373.6,180l0.5,1.4c0.2,0.6,0.3,1.3,0.3,2v39h23.3v-39
	c0-0.7,0.1-1.4,0.3-2l0.5-1.4H373.6z M396.3,183.4v37h-20.6v-37c0-0.5,0-1-0.1-1.5h20.9C396.4,182.4,396.3,182.9,396.3,183.4z
	 M344.3,180l0.5,1.4c0.2,0.6,0.3,1.3,0.3,2v39h23.3v-39c0-0.7,0.1-1.4,0.3-2l0.5-1.4H344.3z M367.1,183.4v37h-20.6v-37
	c0-0.5,0-1-0.1-1.5h20.9C367.1,182.4,367.1,182.9,367.1,183.4z M315.1,180l0.5,1.4c0.2,0.6,0.3,1.3,0.3,2v39h23.3v-39
	c0-0.7,0.1-1.4,0.3-2l0.5-1.4H315.1z M337.8,183.4v37h-20.6v-37c0-0.5,0-1-0.1-1.5H338C337.9,182.4,337.8,182.9,337.8,183.4z
	 M285.8,180l0.5,1.4c0.2,0.6,0.3,1.3,0.3,2v39h23.3v-39c0-0.7,0.1-1.4,0.3-2l0.5-1.4H285.8z M308.6,183.4v37H288v-37
	c0-0.5,0-1-0.1-1.5h20.9C308.6,182.4,308.6,182.9,308.6,183.4z M256.5,180l0.5,1.4c0.2,0.6,0.3,1.3,0.3,2v39h23.3v-39
	c0-0.7,0.1-1.4,0.3-2l0.5-1.4H256.5z M279.3,183.4v37h-20.6v-37c0-0.5,0-1-0.1-1.5h20.9C279.4,182.4,279.3,182.9,279.3,183.4
	L279.3,183.4z M227.3,180l0.5,1.4c0.2,0.6,0.3,1.3,0.3,2v39h23.3v-39c0-0.7,0.1-1.4,0.3-2l0.5-1.4H227.3z M250.1,183.4v37h-20.6v-37
	c0-0.5,0-1-0.1-1.5h20.9C250.1,182.4,250.1,182.9,250.1,183.4L250.1,183.4z M198,180l0.5,1.4c0.2,0.6,0.3,1.3,0.3,2v39h23.3v-39
	c0-0.7,0.1-1.4,0.3-2l0.5-1.4H198z M220.8,183.4v37h-20.6v-37c0-0.5,0-1-0.1-1.5H221C220.8,182.4,220.8,182.9,220.8,183.4
	L220.8,183.4z M432.1,180l0.5,1.4c0.2,0.6,0.3,1.3,0.3,2v39h23.3v-39c0-0.7,0.1-1.4,0.3-2l0.5-1.4H432.1z M454.9,183.4v37h-20.6v-37
	c0-0.5,0-1-0.1-1.5h20.9C454.9,182.4,454.9,182.9,454.9,183.4z M402.8,180l0.5,1.4c0.2,0.6,0.3,1.3,0.3,2v39h23.3v-39
	c0-0.7,0.1-1.4,0.3-2l0.5-1.4H402.8z M425.6,183.4v37H405v-37c0-0.5,0-1-0.1-1.5h20.9C425.6,182.4,425.6,182.9,425.6,183.4z
	 M373.6,180l0.5,1.4c0.2,0.6,0.3,1.3,0.3,2v39h23.3v-39c0-0.7,0.1-1.4,0.3-2l0.5-1.4H373.6z M396.3,183.4v37h-20.6v-37
	c0-0.5,0-1-0.1-1.5h20.9C396.4,182.4,396.3,182.9,396.3,183.4z M344.3,180l0.5,1.4c0.2,0.6,0.3,1.3,0.3,2v39h23.3v-39
	c0-0.7,0.1-1.4,0.3-2l0.5-1.4H344.3z M367.1,183.4v37h-20.6v-37c0-0.5,0-1-0.1-1.5h20.9C367.1,182.4,367.1,182.9,367.1,183.4z
	 M315.1,180l0.5,1.4c0.2,0.6,0.3,1.3,0.3,2v39h23.3v-39c0-0.7,0.1-1.4,0.3-2l0.5-1.4H315.1z M337.8,183.4v37h-20.6v-37
	c0-0.5,0-1-0.1-1.5H338C337.9,182.4,337.8,182.9,337.8,183.4z M285.8,180l0.5,1.4c0.2,0.6,0.3,1.3,0.3,2v39h23.3v-39
	c0-0.7,0.1-1.4,0.3-2l0.5-1.4H285.8z M308.6,183.4v37H288v-37c0-0.5,0-1-0.1-1.5h20.9C308.6,182.4,308.6,182.9,308.6,183.4z
	 M256.5,180l0.5,1.4c0.2,0.6,0.3,1.3,0.3,2v39h23.3v-39c0-0.7,0.1-1.4,0.3-2l0.5-1.4H256.5z M279.3,183.4v37h-20.6v-37
	c0-0.5,0-1-0.1-1.5h20.9C279.4,182.4,279.3,182.9,279.3,183.4L279.3,183.4z M227.3,180l0.5,1.4c0.2,0.6,0.3,1.3,0.3,2v39h23.3v-39
	c0-0.7,0.1-1.4,0.3-2l0.5-1.4H227.3z M250.1,183.4v37h-20.6v-37c0-0.5,0-1-0.1-1.5h20.9C250.1,182.4,250.1,182.9,250.1,183.4
	L250.1,183.4z M198,180l0.5,1.4c0.2,0.6,0.3,1.3,0.3,2v39h23.3v-39c0-0.7,0.1-1.4,0.3-2l0.5-1.4H198z M220.8,183.4v37h-20.6v-37
	c0-0.5,0-1-0.1-1.5H221C220.8,182.4,220.8,182.9,220.8,183.4L220.8,183.4z M432.1,180l0.5,1.4c0.2,0.6,0.3,1.3,0.3,2v39h23.3v-39
	c0-0.7,0.1-1.4,0.3-2l0.5-1.4H432.1z M454.9,183.4v37h-20.6v-37c0-0.5,0-1-0.1-1.5h20.9C454.9,182.4,454.9,182.9,454.9,183.4z
	 M403.3,181.4c0.2,0.6,0.3,1.3,0.3,2v39h23.3v-39c0-0.7,0.1-1.4,0.3-2l0.5-1.4h-24.9L403.3,181.4z M425.7,181.9
	c-0.1,0.5-0.1,1-0.1,1.5v37H405v-37c0-0.5,0-1-0.1-1.5H425.7z M374.1,181.4c0.2,0.6,0.3,1.3,0.3,2v39h23.3v-39c0-0.7,0.1-1.4,0.3-2
	l0.5-1.4h-24.9L374.1,181.4z M396.5,181.9c-0.1,0.5-0.1,1-0.1,1.5v37h-20.6v-37c0-0.5,0-1-0.1-1.5H396.5z M344.8,181.4
	c0.2,0.6,0.3,1.3,0.3,2v39h23.3v-39c0-0.7,0.1-1.4,0.3-2l0.5-1.4h-24.9L344.8,181.4z M367.2,181.9c-0.1,0.5-0.1,1-0.1,1.5v37h-20.6
	v-37c0-0.5,0-1-0.1-1.5H367.2z M315.6,181.4c0.2,0.6,0.3,1.3,0.3,2v39h23.3v-39c0-0.7,0.1-1.4,0.3-2l0.5-1.4h-24.9L315.6,181.4z
	 M337.9,181.9c-0.1,0.5-0.1,1-0.1,1.5v37h-20.6v-37c0-0.5,0-1-0.1-1.5H337.9z M286.3,181.4c0.2,0.6,0.3,1.3,0.3,2v39h23.3v-39
	c0-0.7,0.1-1.4,0.3-2l0.5-1.4h-24.9L286.3,181.4z M308.7,181.9c-0.1,0.5-0.1,1-0.1,1.5v37H288v-37c0-0.5,0-1-0.1-1.5H308.7z
	 M257,181.4c0.2,0.6,0.3,1.3,0.3,2v39h23.3v-39c0-0.7,0.1-1.4,0.3-2l0.5-1.4h-24.9L257,181.4z M279.4,181.9c-0.1,0.5-0.1,1-0.1,1.5
	v37h-20.6v-37c0-0.5,0-1-0.1-1.5H279.4z M227.8,181.4c0.2,0.6,0.3,1.3,0.3,2v39h23.3v-39c0-0.7,0.1-1.4,0.3-2l0.5-1.4h-24.9
	L227.8,181.4z M250.2,181.9c-0.1,0.5-0.1,1-0.1,1.5v37h-20.6v-37c0-0.5,0-1-0.1-1.5H250.2z M198.5,181.4c0.2,0.6,0.3,1.3,0.3,2v39
	h23.3v-39c0-0.7,0.1-1.4,0.3-2l0.5-1.4H198L198.5,181.4z M220.9,181.9c-0.1,0.5-0.1,1-0.1,1.5v37h-20.6v-37c0-0.5,0-1-0.1-1.5H220.9
	z M432.6,181.4c0.2,0.6,0.3,1.3,0.3,2v39h23.3v-39c0-0.7,0.1-1.4,0.3-2l0.5-1.4h-24.9L432.6,181.4z M455,181.9
	c-0.1,0.5-0.1,1-0.1,1.5v37h-20.6v-37c0-0.5,0-1-0.1-1.5H455z M403.3,181.4c0.2,0.6,0.3,1.3,0.3,2v39h23.3v-39c0-0.7,0.1-1.4,0.3-2
	l0.5-1.4h-24.9L403.3,181.4z M425.7,181.9c-0.1,0.5-0.1,1-0.1,1.5v37H405v-37c0-0.5,0-1-0.1-1.5H425.7z M374.1,181.4
	c0.2,0.6,0.3,1.3,0.3,2v39h23.3v-39c0-0.7,0.1-1.4,0.3-2l0.5-1.4h-24.9L374.1,181.4z M396.5,181.9c-0.1,0.5-0.1,1-0.1,1.5v37h-20.6
	v-37c0-0.5,0-1-0.1-1.5H396.5z M344.8,181.4c0.2,0.6,0.3,1.3,0.3,2v39h23.3v-39c0-0.7,0.1-1.4,0.3-2l0.5-1.4h-24.9L344.8,181.4z
	 M367.2,181.9c-0.1,0.5-0.1,1-0.1,1.5v37h-20.6v-37c0-0.5,0-1-0.1-1.5H367.2z M315.6,181.4c0.2,0.6,0.3,1.3,0.3,2v39h23.3v-39
	c0-0.7,0.1-1.4,0.3-2l0.5-1.4h-24.9L315.6,181.4z M337.9,181.9c-0.1,0.5-0.1,1-0.1,1.5v37h-20.6v-37c0-0.5,0-1-0.1-1.5H337.9z
	 M286.3,181.4c0.2,0.6,0.3,1.3,0.3,2v39h23.3v-39c0-0.7,0.1-1.4,0.3-2l0.5-1.4h-24.9L286.3,181.4z M308.7,181.9
	c-0.1,0.5-0.1,1-0.1,1.5v37H288v-37c0-0.5,0-1-0.1-1.5H308.7z M257,181.4c0.2,0.6,0.3,1.3,0.3,2v39h23.3v-39c0-0.7,0.1-1.4,0.3-2
	l0.5-1.4h-24.9L257,181.4z M279.4,181.9c-0.1,0.5-0.1,1-0.1,1.5v37h-20.6v-37c0-0.5,0-1-0.1-1.5H279.4z M227.8,181.4
	c0.2,0.6,0.3,1.3,0.3,2v39h23.3v-39c0-0.7,0.1-1.4,0.3-2l0.5-1.4h-24.9L227.8,181.4z M250.2,181.9c-0.1,0.5-0.1,1-0.1,1.5v37h-20.6
	v-37c0-0.5,0-1-0.1-1.5H250.2z M198.5,181.4c0.2,0.6,0.3,1.3,0.3,2v39h23.3v-39c0-0.7,0.1-1.4,0.3-2l0.5-1.4H198L198.5,181.4z
	 M220.9,181.9c-0.1,0.5-0.1,1-0.1,1.5v37h-20.6v-37c0-0.5,0-1-0.1-1.5H220.9z M482.8,228.3h-7.9c-0.9-4.7-3.8-7.9-7-7.9h-4.4v-37
	c0-0.8-0.1-1.6-0.3-2.3c1.9-1.7,2.5-5.3,1.4-8.1c-0.7-1.8-2-2.9-3.4-2.9H193.9c-2.2,0-4,2.6-4,5.9c0,2.1,0.7,4,2,5.1
	c-0.2,0.7-0.3,1.5-0.3,2.3v37h-4.3c-3.3,0-6.1,3.2-7,7.9h-8.6c-3.3,0-6,4-6,8.9v520.7c0,4.9,2.7,8.9,6,8.9h311.2c3.3,0,6-4,6-8.9
	V237.2C488.8,232.3,486.1,228.3,482.8,228.3z M487.4,757.8c0,2.9-1.2,5.5-3,6.5c-0.5,0.3-1.1,0.4-1.6,0.4H171.6
	c-0.6,0-1.1-0.1-1.6-0.4c-1.8-1-3-3.6-3-6.5V237.2c0-3.8,2.1-6.9,4.7-6.9h9.7l0.1-0.8c0.6-4.1,3-7.1,5.9-7.1h5.7v-39
	c0-0.8,0.1-1.6,0.4-2.3l0.4-1l-0.8-0.4c-1.4-0.7-2.1-3-1.6-5c0.4-1.6,1.4-2.6,2.5-2.6h267.3c1.5,0,2.7,1.8,2.7,3.9
	c0,1.7-0.7,3.1-1.7,3.7l-0.8,0.4l0.4,1c0.3,0.7,0.4,1.5,0.4,2.3v39h5.7c2.8,0,5.3,3,5.9,7.1l0.1,0.8h9c2.6,0,4.7,3.1,4.7,6.9
	L487.4,757.8z M198,180l0.5,1.4c0.2,0.6,0.3,1.3,0.3,2v39h23.3v-39c0-0.7,0.1-1.4,0.3-2l0.5-1.4H198z M220.8,183.4v37h-20.6v-37
	c0-0.5,0-1-0.1-1.5H221C220.8,182.4,220.8,182.9,220.8,183.4L220.8,183.4z M227.3,180l0.5,1.4c0.2,0.6,0.3,1.3,0.3,2v39h23.3v-39
	c0-0.7,0.1-1.4,0.3-2l0.5-1.4H227.3z M250.1,183.4v37h-20.6v-37c0-0.5,0-1-0.1-1.5h20.9C250.1,182.4,250.1,182.9,250.1,183.4
	L250.1,183.4z M256.5,180l0.5,1.4c0.2,0.6,0.3,1.3,0.3,2v39h23.3v-39c0-0.7,0.1-1.4,0.3-2l0.5-1.4H256.5z M279.3,183.4v37h-20.6v-37
	c0-0.5,0-1-0.1-1.5h20.9C279.4,182.4,279.3,182.9,279.3,183.4L279.3,183.4z M285.8,180l0.5,1.4c0.2,0.6,0.3,1.3,0.3,2v39h23.3v-39
	c0-0.7,0.1-1.4,0.3-2l0.5-1.4H285.8z M308.6,183.4v37H288v-37c0-0.5,0-1-0.1-1.5h20.9C308.6,182.4,308.6,182.9,308.6,183.4z
	 M315.1,180l0.5,1.4c0.2,0.6,0.3,1.3,0.3,2v39h23.3v-39c0-0.7,0.1-1.4,0.3-2l0.5-1.4H315.1z M337.8,183.4v37h-20.6v-37
	c0-0.5,0-1-0.1-1.5H338C337.9,182.4,337.8,182.9,337.8,183.4z M344.3,180l0.5,1.4c0.2,0.6,0.3,1.3,0.3,2v39h23.3v-39
	c0-0.7,0.1-1.4,0.3-2l0.5-1.4H344.3z M367.1,183.4v37h-20.6v-37c0-0.5,0-1-0.1-1.5h20.9C367.1,182.4,367.1,182.9,367.1,183.4z
	 M373.6,180l0.5,1.4c0.2,0.6,0.3,1.3,0.3,2v39h23.3v-39c0-0.7,0.1-1.4,0.3-2l0.5-1.4H373.6z M396.3,183.4v37h-20.6v-37
	c0-0.5,0-1-0.1-1.5h20.9C396.4,182.4,396.3,182.9,396.3,183.4z M402.8,180l0.5,1.4c0.2,0.6,0.3,1.3,0.3,2v39h23.3v-39
	c0-0.7,0.1-1.4,0.3-2l0.5-1.4H402.8z M425.6,183.4v37H405v-37c0-0.5,0-1-0.1-1.5h20.9C425.6,182.4,425.6,182.9,425.6,183.4z
	 M432.1,180l0.5,1.4c0.2,0.6,0.3,1.3,0.3,2v39h23.3v-39c0-0.7,0.1-1.4,0.3-2l0.5-1.4H432.1z M454.9,183.4v37h-20.6v-37
	c0-0.5,0-1-0.1-1.5h20.9C454.9,182.4,454.9,182.9,454.9,183.4z M198,180l0.5,1.4c0.2,0.6,0.3,1.3,0.3,2v39h23.3v-39
	c0-0.7,0.1-1.4,0.3-2l0.5-1.4H198z M220.8,183.4v37h-20.6v-37c0-0.5,0-1-0.1-1.5H221C220.8,182.4,220.8,182.9,220.8,183.4
	L220.8,183.4z M227.3,180l0.5,1.4c0.2,0.6,0.3,1.3,0.3,2v39h23.3v-39c0-0.7,0.1-1.4,0.3-2l0.5-1.4H227.3z M250.1,183.4v37h-20.6v-37
	c0-0.5,0-1-0.1-1.5h20.9C250.1,182.4,250.1,182.9,250.1,183.4L250.1,183.4z M256.5,180l0.5,1.4c0.2,0.6,0.3,1.3,0.3,2v39h23.3v-39
	c0-0.7,0.1-1.4,0.3-2l0.5-1.4H256.5z M279.3,183.4v37h-20.6v-37c0-0.5,0-1-0.1-1.5h20.9C279.4,182.4,279.3,182.9,279.3,183.4
	L279.3,183.4z M285.8,180l0.5,1.4c0.2,0.6,0.3,1.3,0.3,2v39h23.3v-39c0-0.7,0.1-1.4,0.3-2l0.5-1.4H285.8z M308.6,183.4v37H288v-37
	c0-0.5,0-1-0.1-1.5h20.9C308.6,182.4,308.6,182.9,308.6,183.4z M315.1,180l0.5,1.4c0.2,0.6,0.3,1.3,0.3,2v39h23.3v-39
	c0-0.7,0.1-1.4,0.3-2l0.5-1.4H315.1z M337.8,183.4v37h-20.6v-37c0-0.5,0-1-0.1-1.5H338C337.9,182.4,337.8,182.9,337.8,183.4z
	 M344.3,180l0.5,1.4c0.2,0.6,0.3,1.3,0.3,2v39h23.3v-39c0-0.7,0.1-1.4,0.3-2l0.5-1.4H344.3z M367.1,183.4v37h-20.6v-37
	c0-0.5,0-1-0.1-1.5h20.9C367.1,182.4,367.1,182.9,367.1,183.4z M373.6,180l0.5,1.4c0.2,0.6,0.3,1.3,0.3,2v39h23.3v-39
	c0-0.7,0.1-1.4,0.3-2l0.5-1.4H373.6z M396.3,183.4v37h-20.6v-37c0-0.5,0-1-0.1-1.5h20.9C396.4,182.4,396.3,182.9,396.3,183.4z
	 M402.8,180l0.5,1.4c0.2,0.6,0.3,1.3,0.3,2v39h23.3v-39c0-0.7,0.1-1.4,0.3-2l0.5-1.4H402.8z M425.6,183.4v37H405v-37
	c0-0.5,0-1-0.1-1.5h20.9C425.6,182.4,425.6,182.9,425.6,183.4z M432.1,180l0.5,1.4c0.2,0.6,0.3,1.3,0.3,2v39h23.3v-39
	c0-0.7,0.1-1.4,0.3-2l0.5-1.4H432.1z M454.9,183.4v37h-20.6v-37c0-0.5,0-1-0.1-1.5h20.9C454.9,182.4,454.9,182.9,454.9,183.4z
	 M198,180l0.5,1.4c0.2,0.6,0.3,1.3,0.3,2v39h23.3v-39c0-0.7,0.1-1.4,0.3-2l0.5-1.4H198z M220.8,183.4v37h-20.6v-37
	c0-0.5,0-1-0.1-1.5H221C220.8,182.4,220.8,182.9,220.8,183.4L220.8,183.4z M227.3,180l0.5,1.4c0.2,0.6,0.3,1.3,0.3,2v39h23.3v-39
	c0-0.7,0.1-1.4,0.3-2l0.5-1.4H227.3z M250.1,183.4v37h-20.6v-37c0-0.5,0-1-0.1-1.5h20.9C250.1,182.4,250.1,182.9,250.1,183.4
	L250.1,183.4z M256.5,180l0.5,1.4c0.2,0.6,0.3,1.3,0.3,2v39h23.3v-39c0-0.7,0.1-1.4,0.3-2l0.5-1.4H256.5z M279.3,183.4v37h-20.6v-37
	c0-0.5,0-1-0.1-1.5h20.9C279.4,182.4,279.3,182.9,279.3,183.4L279.3,183.4z M285.8,180l0.5,1.4c0.2,0.6,0.3,1.3,0.3,2v39h23.3v-39
	c0-0.7,0.1-1.4,0.3-2l0.5-1.4H285.8z M308.6,183.4v37H288v-37c0-0.5,0-1-0.1-1.5h20.9C308.6,182.4,308.6,182.9,308.6,183.4z
	 M315.1,180l0.5,1.4c0.2,0.6,0.3,1.3,0.3,2v39h23.3v-39c0-0.7,0.1-1.4,0.3-2l0.5-1.4H315.1z M337.8,183.4v37h-20.6v-37
	c0-0.5,0-1-0.1-1.5H338C337.9,182.4,337.8,182.9,337.8,183.4z M344.3,180l0.5,1.4c0.2,0.6,0.3,1.3,0.3,2v39h23.3v-39
	c0-0.7,0.1-1.4,0.3-2l0.5-1.4H344.3z M367.1,183.4v37h-20.6v-37c0-0.5,0-1-0.1-1.5h20.9C367.1,182.4,367.1,182.9,367.1,183.4z
	 M373.6,180l0.5,1.4c0.2,0.6,0.3,1.3,0.3,2v39h23.3v-39c0-0.7,0.1-1.4,0.3-2l0.5-1.4H373.6z M396.3,183.4v37h-20.6v-37
	c0-0.5,0-1-0.1-1.5h20.9C396.4,182.4,396.3,182.9,396.3,183.4z M402.8,180l0.5,1.4c0.2,0.6,0.3,1.3,0.3,2v39h23.3v-39
	c0-0.7,0.1-1.4,0.3-2l0.5-1.4H402.8z M425.6,183.4v37H405v-37c0-0.5,0-1-0.1-1.5h20.9C425.6,182.4,425.6,182.9,425.6,183.4z
	 M432.1,180l0.5,1.4c0.2,0.6,0.3,1.3,0.3,2v39h23.3v-39c0-0.7,0.1-1.4,0.3-2l0.5-1.4H432.1z M454.9,183.4v37h-20.6v-37
	c0-0.5,0-1-0.1-1.5h20.9C454.9,182.4,454.9,182.9,454.9,183.4z M198,180l0.5,1.4c0.2,0.6,0.3,1.3,0.3,2v39h23.3v-39
	c0-0.7,0.1-1.4,0.3-2l0.5-1.4H198z M220.8,183.4v37h-20.6v-37c0-0.5,0-1-0.1-1.5H221C220.8,182.4,220.8,182.9,220.8,183.4
	L220.8,183.4z M227.3,180l0.5,1.4c0.2,0.6,0.3,1.3,0.3,2v39h23.3v-39c0-0.7,0.1-1.4,0.3-2l0.5-1.4H227.3z M250.1,183.4v37h-20.6v-37
	c0-0.5,0-1-0.1-1.5h20.9C250.1,182.4,250.1,182.9,250.1,183.4L250.1,183.4z M256.5,180l0.5,1.4c0.2,0.6,0.3,1.3,0.3,2v39h23.3v-39
	c0-0.7,0.1-1.4,0.3-2l0.5-1.4H256.5z M279.3,183.4v37h-20.6v-37c0-0.5,0-1-0.1-1.5h20.9C279.4,182.4,279.3,182.9,279.3,183.4
	L279.3,183.4z M285.8,180l0.5,1.4c0.2,0.6,0.3,1.3,0.3,2v39h23.3v-39c0-0.7,0.1-1.4,0.3-2l0.5-1.4H285.8z M308.6,183.4v37H288v-37
	c0-0.5,0-1-0.1-1.5h20.9C308.6,182.4,308.6,182.9,308.6,183.4z M315.1,180l0.5,1.4c0.2,0.6,0.3,1.3,0.3,2v39h23.3v-39
	c0-0.7,0.1-1.4,0.3-2l0.5-1.4H315.1z M337.8,183.4v37h-20.6v-37c0-0.5,0-1-0.1-1.5H338C337.9,182.4,337.8,182.9,337.8,183.4z
	 M344.3,180l0.5,1.4c0.2,0.6,0.3,1.3,0.3,2v39h23.3v-39c0-0.7,0.1-1.4,0.3-2l0.5-1.4H344.3z M367.1,183.4v37h-20.6v-37
	c0-0.5,0-1-0.1-1.5h20.9C367.1,182.4,367.1,182.9,367.1,183.4z M373.6,180l0.5,1.4c0.2,0.6,0.3,1.3,0.3,2v39h23.3v-39
	c0-0.7,0.1-1.4,0.3-2l0.5-1.4H373.6z M396.3,183.4v37h-20.6v-37c0-0.5,0-1-0.1-1.5h20.9C396.4,182.4,396.3,182.9,396.3,183.4z
	 M402.8,180l0.5,1.4c0.2,0.6,0.3,1.3,0.3,2v39h23.3v-39c0-0.7,0.1-1.4,0.3-2l0.5-1.4H402.8z M425.6,183.4v37H405v-37
	c0-0.5,0-1-0.1-1.5h20.9C425.6,182.4,425.6,182.9,425.6,183.4z M432.1,180l0.5,1.4c0.2,0.6,0.3,1.3,0.3,2v39h23.3v-39
	c0-0.7,0.1-1.4,0.3-2l0.5-1.4H432.1z M454.9,183.4v37h-20.6v-37c0-0.5,0-1-0.1-1.5h20.9C454.9,182.4,454.9,182.9,454.9,183.4z"/>
<path class="st5" d="M278.4,316.4h-49c-2.2,0-3.9-1.7-3.9-3.9v-26.1c0-2.2,1.7-3.9,3.9-3.9h49c2.2,0,3.9,1.7,3.9,3.9v26.1
	C282.3,314.6,280.6,316.4,278.4,316.4z"/>
<path class="st5" d="M353.1,316.4h-49c-2.2,0-3.9-1.7-3.9-3.9v-26.1c0-2.2,1.7-3.9,3.9-3.9h49c2.2,0,3.9,1.7,3.9,3.9v26.1
	C357,314.6,355.2,316.4,353.1,316.4z"/>
<path class="st5" d="M427.7,316.4h-49c-2.2,0-3.9-1.7-3.9-3.9v-26.1c0-2.2,1.7-3.9,3.9-3.9h49c2.2,0,3.9,1.7,3.9,3.9v26.1
	C431.6,314.6,429.8,316.4,427.7,316.4z"/>
<path class="st5" d="M277.4,574.9h-49c-2.2,0-3.9-1.7-3.9-3.9v-26.1c0-2.2,1.7-3.9,3.9-3.9h49c2.2,0,3.9,1.7,3.9,3.9V571
	C281.3,573.1,279.6,574.9,277.4,574.9z"/>
<path class="st5" d="M352,574.9h-49c-2.2,0-3.9-1.7-3.9-3.9v-26.1c0-2.2,1.7-3.9,3.9-3.9h49c2.2,0,3.9,1.7,3.9,3.9V571
	C355.9,573.1,354.2,574.9,352,574.9z"/>
<path class="st5" d="M426.7,574.9h-49c-2.2,0-3.9-1.7-3.9-3.9v-26.1c0-2.2,1.7-3.9,3.9-3.9h49c2.2,0,3.9,1.7,3.9,3.9V571
	C430.6,573.1,428.8,574.9,426.7,574.9z"/>
<path class="st2" d="M270.5,319.7h-56.8c-2.9,0-5.2-2.3-5.2-5.2v-30.3c0-2.9,2.3-5.2,5.2-5.2h56.8c2.9,0,5.2,2.3,5.2,5.2v30.3
	C275.7,317.4,273.4,319.7,270.5,319.7z M213.7,280.4c-2.1,0-3.8,1.7-3.8,3.8v30.3c0,2.1,1.7,3.8,3.8,3.8h56.8c2.1,0,3.8-1.7,3.8-3.8
	v-30.3c0-2.1-1.7-3.8-3.8-3.8H213.7z"/>
<path class="st2" d="M356.9,319.7h-56.8c-2.9,0-5.2-2.3-5.2-5.2v-30.3c0-2.9,2.3-5.2,5.2-5.2h56.8c2.9,0,5.2,2.3,5.2,5.2v30.3
	C362.1,317.4,359.8,319.7,356.9,319.7z M300.1,280.4c-2.1,0-3.8,1.7-3.8,3.8v30.3c0,2.1,1.7,3.8,3.8,3.8h56.8c2.1,0,3.8-1.7,3.8-3.8
	v-30.3c0-2.1-1.7-3.8-3.8-3.8H300.1z"/>
<path class="st2" d="M443.4,319.7h-56.8c-2.9,0-5.2-2.3-5.2-5.2v-30.3c0-2.9,2.3-5.2,5.2-5.2h56.8c2.9,0,5.2,2.3,5.2,5.2v30.3
	C448.6,317.4,446.3,319.7,443.4,319.7z M386.6,280.4c-2.1,0-3.8,1.7-3.8,3.8v30.3c0,2.1,1.7,3.8,3.8,3.8h56.8c2.1,0,3.8-1.7,3.8-3.8
	v-30.3c0-2.1-1.7-3.8-3.8-3.8H386.6z"/>
<path class="st2" d="M269.5,578.2h-56.8c-2.9,0-5.2-2.3-5.2-5.2v-30.3c0-2.9,2.3-5.2,5.2-5.2h56.8c2.9,0,5.2,2.3,5.2,5.2V573
	C274.7,575.9,272.3,578.2,269.5,578.2z M212.7,538.9c-2.1,0-3.8,1.7-3.8,3.8V573c0,2.1,1.7,3.8,3.8,3.8h56.8c2.1,0,3.8-1.7,3.8-3.8
	v-30.3c0-2.1-1.7-3.8-3.8-3.8H212.7z"/>
<path class="st2" d="M355.9,578.2h-56.8c-2.9,0-5.2-2.3-5.2-5.2v-30.3c0-2.9,2.3-5.2,5.2-5.2h56.8c2.9,0,5.2,2.3,5.2,5.2V573
	C361.1,575.9,358.8,578.2,355.9,578.2z M299.1,538.9c-2.1,0-3.8,1.7-3.8,3.8V573c0,2.1,1.7,3.8,3.8,3.8h56.8c2.1,0,3.8-1.7,3.8-3.8
	v-30.3c0-2.1-1.7-3.8-3.8-3.8H299.1z"/>
<path class="st2" d="M442.4,578.2h-56.8c-2.9,0-5.2-2.3-5.2-5.2v-30.3c0-2.9,2.3-5.2,5.2-5.2h56.8c2.9,0,5.2,2.3,5.2,5.2V573
	C447.5,575.9,445.2,578.2,442.4,578.2z M385.6,538.9c-2.1,0-3.8,1.7-3.8,3.8V573c0,2.1,1.7,3.8,3.8,3.8h56.8c2.1,0,3.8-1.7,3.8-3.8
	v-30.3c0-2.1-1.7-3.8-3.8-3.8H385.6z"/>
<path class="st2" d="M673.5,767.7H3.2c-0.4,0-0.7-0.3-0.7-0.7s0.3-0.7,0.7-0.7h670.3c0.4,0,0.7,0.3,0.7,0.7
	C674.1,767.4,673.8,767.7,673.5,767.7z"/>
<path class="st2" d="M398.2,635.4c0.1-6.6-5.2-11.9-11.7-12h-58v142.8h69.7V635.4z"/>
<path class="st2" d="M329.9,764.7h-72.4v-129c0-7.2,5.9-13.1,13.1-13.1h59.3V764.7z M260.3,762h66.9V625.4h-56.6
	c-5.7,0-10.3,4.6-10.3,10.3V762z"/>
<circle class="st2" cx="266.5" cy="699.2" r="4.1"/>
<path class="st5" d="M277.4,492.1h-49c-2.2,0-3.9-1.7-3.9-3.9V462c0-2.2,1.7-3.9,3.9-3.9h49c2.2,0,3.9,1.7,3.9,3.9v26.1
	C281.3,490.3,279.6,492.1,277.4,492.1z"/>
<path class="st5" d="M352,492.1h-49c-2.2,0-3.9-1.7-3.9-3.9V462c0-2.2,1.7-3.9,3.9-3.9h49c2.2,0,3.9,1.7,3.9,3.9v26.1
	C355.9,490.3,354.2,492.1,352,492.1z"/>
<path class="st5" d="M426.7,492.1h-49c-2.2,0-3.9-1.7-3.9-3.9V462c0-2.2,1.7-3.9,3.9-3.9h49c2.2,0,3.9,1.7,3.9,3.9v26.1
	C430.6,490.3,428.8,492.1,426.7,492.1z"/>
<path class="st2" d="M269.5,495.4h-56.8c-2.9,0-5.2-2.3-5.2-5.2V460c0-2.9,2.3-5.2,5.2-5.2h56.8c2.9,0,5.2,2.3,5.2,5.2v30.3
	C274.7,493.1,272.3,495.4,269.5,495.4z M212.7,456.1c-2.1,0-3.8,1.7-3.8,3.8v30.3c0,2.1,1.7,3.8,3.8,3.8h56.8c2.1,0,3.8-1.7,3.8-3.8
	V460c0-2.1-1.7-3.8-3.8-3.8h-56.8V456.1z"/>
<path class="st2" d="M355.9,495.4h-56.8c-2.9,0-5.2-2.3-5.2-5.2V460c0-2.9,2.3-5.2,5.2-5.2h56.8c2.9,0,5.2,2.3,5.2,5.2v30.3
	C361.1,493.1,358.8,495.4,355.9,495.4z M299.1,456.1c-2.1,0-3.8,1.7-3.8,3.8v30.3c0,2.1,1.7,3.8,3.8,3.8h56.8c2.1,0,3.8-1.7,3.8-3.8
	V460c0-2.1-1.7-3.8-3.8-3.8h-56.8V456.1z"/>
<path class="st2" d="M442.4,495.4h-56.8c-2.9,0-5.2-2.3-5.2-5.2V460c0-2.9,2.3-5.2,5.2-5.2h56.8c2.9,0,5.2,2.3,5.2,5.2v30.3
	C447.5,493.1,445.2,495.4,442.4,495.4z M385.6,456.1c-2.1,0-3.8,1.7-3.8,3.8v30.3c0,2.1,1.7,3.8,3.8,3.8h56.8c2.1,0,3.8-1.7,3.8-3.8
	V460c0-2.1-1.7-3.8-3.8-3.8h-56.8V456.1z"/>
<path class="st5" d="M279.8,405.9h-49c-2.2,0-3.9-1.7-3.9-3.9v-26.1c0-2.2,1.7-3.9,3.9-3.9h49c2.2,0,3.9,1.7,3.9,3.9V402
	C283.7,404.1,282,405.9,279.8,405.9z"/>
<path class="st5" d="M354.4,405.9h-49c-2.2,0-3.9-1.7-3.9-3.9v-26.1c0-2.2,1.7-3.9,3.9-3.9h49c2.2,0,3.9,1.7,3.9,3.9V402
	C358.3,404.1,356.6,405.9,354.4,405.9z"/>
<path class="st5" d="M429.1,405.9h-49c-2.2,0-3.9-1.7-3.9-3.9v-26.1c0-2.2,1.7-3.9,3.9-3.9h49c2.2,0,3.9,1.7,3.9,3.9V402
	C433,404.1,431.2,405.9,429.1,405.9z"/>
<path class="st2" d="M271.9,409.2h-56.8c-2.9,0-5.2-2.3-5.2-5.2v-30.3c0-2.9,2.3-5.2,5.2-5.2h56.8c2.9,0,5.2,2.3,5.2,5.2V404
	C277.1,406.9,274.7,409.2,271.9,409.2z M215.1,369.9c-2.1,0-3.8,1.7-3.8,3.8V404c0,2.1,1.7,3.8,3.8,3.8h56.8c2.1,0,3.8-1.7,3.8-3.8
	v-30.3c0-2.1-1.7-3.8-3.8-3.8H215.1z"/>
<path class="st2" d="M358.3,409.2h-56.8c-2.9,0-5.2-2.3-5.2-5.2v-30.3c0-2.9,2.3-5.2,5.2-5.2h56.8c2.9,0,5.2,2.3,5.2,5.2V404
	C363.5,406.9,361.2,409.2,358.3,409.2z M301.5,369.9c-2.1,0-3.8,1.7-3.8,3.8V404c0,2.1,1.7,3.8,3.8,3.8h56.8c2.1,0,3.8-1.7,3.8-3.8
	v-30.3c0-2.1-1.7-3.8-3.8-3.8H301.5z"/>
<path class="st2" d="M444.8,409.2H388c-2.9,0-5.2-2.3-5.2-5.2v-30.3c0-2.9,2.3-5.2,5.2-5.2h56.8c2.9,0,5.2,2.3,5.2,5.2V404
	C449.9,406.9,447.6,409.2,444.8,409.2z M388,369.9c-2.1,0-3.8,1.7-3.8,3.8V404c0,2.1,1.7,3.8,3.8,3.8h56.8c2.1,0,3.8-1.7,3.8-3.8
	v-30.3c0-2.1-1.7-3.8-3.8-3.8H388z"/>
<path class="st3" d="M477.2,716.8h-4.7c-0.3,0-0.6-0.2-0.6-0.5l-0.9-9.7h7.8l-0.9,9.7C477.8,716.6,477.5,716.8,477.2,716.8z"/>
<path class="st4" d="M478.8,707.8H471c-0.3,0-0.6-0.3-0.6-0.6v-1.5c0-0.3,0.3-0.6,0.6-0.6h7.8c0.3,0,0.6,0.3,0.6,0.6v1.5
	C479.4,707.5,479.1,707.8,478.8,707.8z"/>
<path class="st5" d="M422,706.4h-18.7v-5.7c5.9-4.1,11.1-3.8,18,0.3L422,706.4z"/>
<polygon class="st6" points="399,807.2 394.9,807.2 394.3,791.4 399,791.4 "/>
<path class="st7" d="M400,811.2h-13.2V811c0-2.8,2.3-5.1,5.1-5.1l0,0l0,0h8.1V811.2z"/>
<polygon class="st6" points="422.1,807.2 426.1,807.2 426.8,791.4 422.1,791.4 "/>
<path class="st7" d="M421,805.9h8.1l0,0c2.8,0,5.1,2.3,5.1,5.1l0,0v0.2H421V805.9z"/>
<path class="st7" d="M422.2,805.2c-0.7,0-1.3-0.5-1.5-1.2l-10.1-44.2c0-0.2-0.3-0.4-0.5-0.4l0,0c-0.2,0-0.4,0.2-0.5,0.4l-9.3,43.9
	c-0.1,0.7-0.8,1.2-1.5,1.2h-4.4c-0.8,0-1.5-0.7-1.5-1.5v-0.1l3.3-55.7l1.3-0.4l0,0l26.1,0.2l5.6,55.6c0.1,0.8-0.5,1.6-1.3,1.6l0,0
	l-5.5,0.4C422.2,805.2,422.2,805.2,422.2,805.2z"/>
<circle class="st6" cx="411.4" cy="688" r="8.2"/>
<path class="st2" d="M406.4,753.7c-1.4,0-2.9-0.2-4.2-0.6c-2.5-0.7-4.5-2.5-5.7-4.8c-0.2-0.3-0.2-0.7-0.1-1.1
	c0.9-3.1,5.3-19.1,2.5-31.9c-0.8-3.6-0.1-7.3,1.9-10.4c2-3,5.1-5.1,8.7-5.8l0,0c0.5-0.1,0.9-0.2,1.4-0.2c3.9-0.5,7.9,0.8,10.8,3.5
	c3,2.8,4.5,6.7,4.3,10.8l-2.1,34.4c0,0.5-0.3,1-0.8,1.2C420.4,750.1,413,753.7,406.4,753.7z"/>
<path class="st7" d="M420.6,682c-1.8-4.4-6.4-7-11-6.2l2.6,2.1c-3.2,0.1-6.6-0.1-8.9,2.1c0.7,0,1.7,1.5,2.4,1.5
	c-1.4,0-2.6,1-3.2,2.2c-0.6,1.3-0.7,2.7-0.4,4c0.3,1.3,2.3,4.5,2.9,5.7c-0.1-3.3,6.3-11,9.5-10.2c-1.6,0.6-3,1.6-4,3
	c2.1-1.1,4.5-1.5,6.9-1.1c0.5,0.1,1.1,0.2,1.6,0.1c1.1-0.2,1.8-1.3,1.6-2.4c-0.1-0.3-0.2-0.6-0.4-0.9L420.6,682z"/>
<path class="st5" d="M405.8,751.6c-0.2,0-0.4,0-0.6-0.1l-15.6-6.8c-0.7-0.3-1-1-0.9-1.8L399,704c0.8-3,3.9-4.8,6.9-4h0.1l4.1,1.2
	l-2.9,49c0,0.5-0.3,0.9-0.7,1.2C406.3,751.6,406.1,751.6,405.8,751.6z"/>
<path class="st5" d="M434.6,743l-0.7-2.6l-1-3.8l-0.5-1.8l-1-3.7l-7.2-27c-0.8-3-3.9-4.8-6.9-4h-0.1l-4.1,1.2l2,34.4l0.2,3.6
	l0.1,2.3l0,0l0.2,3.6l0.3,5.1c0.1,0.8,0.7,1.4,1.5,1.4c0.2,0,0.4,0,0.6-0.1l15.6-6.8C434.4,744.4,434.8,743.7,434.6,743z"/>
<polygon class="st4" points="432.4,734.8 415.4,739.3 415.2,735.7 431.4,731.1 "/>
<polygon class="st4" points="433.9,740.4 415.8,745.1 415.6,741.6 415.6,741.6 432.9,736.6 "/>
<polygon class="st4" points="407.9,736.5 407.7,740 391,735 392,731.3 "/>
<polygon class="st4" points="407.6,742.3 390.6,736.8 389.6,740.5 407.4,745.8 "/>
<path class="st6" d="M390.9,746c1.9-0.5,3.1-2.5,2.6-4.4c-0.1-0.2-0.1-0.4-0.2-0.6l8-25.1l-5.7-1.2l-7.3,24.6
	c-1.7,1-2.4,3.1-1.4,4.9C387.6,745.7,389.3,746.5,390.9,746L390.9,746z"/>
<path class="st2" d="M401.4,703.6L401.4,703.6c1.6,0.2,2.5,2,2.1,4.3l-1.9,10.9c-0.1,0.8-0.8,1.5-1.4,1.3l-6.6-1.6
	c-0.5-0.1-0.7-0.8-0.4-1.6l3.9-9.9C398.1,704.9,399.9,703.4,401.4,703.6z"/>
<path class="st5" d="M411.3,672.7L411.3,672.7c5.8,0,10.5,4.6,10.7,10.3h2c0.4,0,0.7,0.3,0.7,0.7v2.7c0,0.4-0.3,0.7-0.7,0.7h-22.7
	c-0.4,0-0.7-0.3-0.7-0.7v-3C400.7,677.5,405.4,672.7,411.3,672.7L411.3,672.7z"/>
<path class="st3" d="M412.6,738.7h-4.7c-0.3,0-0.6-0.2-0.6-0.5l-0.9-9.7h7.8l-0.9,9.7C413.2,738.5,412.9,738.7,412.6,738.7z"/>
<path class="st4" d="M414.2,729.7h-7.8c-0.3,0-0.6-0.3-0.6-0.6v-1.5c0-0.3,0.3-0.6,0.6-0.6h7.8c0.3,0,0.6,0.3,0.6,0.6v1.5
	C414.8,729.4,414.5,729.7,414.2,729.7z"/>
<path class="st6" d="M410.4,733.5c0.2,0,0.4,0.1,0.5,0.1l12.6-10.8l-0.7-4l5.8-1.9l2,6.9c0.3,1.1-0.1,2.4-1.1,3l-16,10.1
	c0,1.9-1.5,3.5-3.4,3.6c-1.9,0-3.5-1.5-3.6-3.4c0-1.9,1.5-3.5,3.4-3.6C410.1,733.5,410.2,733.5,410.4,733.5L410.4,733.5z"/>
<path class="st2" d="M423.5,704.5L423.5,704.5c1.7-0.5,3.5,0.8,4.1,3.1l2.8,10.8c0.2,0.8-0.2,1.7-0.8,1.8l-7.4,1.1
	c-0.6,0.1-1.1-0.5-1.1-1.3l-0.3-10.7C420.6,707,421.8,705,423.5,704.5z"/>
<path class="st4" d="M523.6,773.6c-3.4-4.6-6.1-9.6-8-15c-0.2-0.7,0.1-1.4,0.7-1.7l11.7-6.3c0.4-0.2,0.8-0.2,1.2-0.1
	c0.4,0.2,0.7,0.5,0.8,1c1.4,5.2,3.9,10,7.5,14c0.3,0.3,0.4,0.8,0.3,1.2c-0.1,0.4-0.3,0.8-0.7,1l-11.7,6.3
	C524.8,774.4,524,774.2,523.6,773.6z"/>
<path class="st8" d="M524.4,773c0.1,0.2,0.4,0.2,0.5,0.1l11.7-6.3c0.1-0.1,0.2-0.2,0.2-0.3s0-0.3-0.1-0.4c-3.7-4.1-6.3-9.1-7.7-14.4
	c0-0.1-0.1-0.2-0.3-0.3c-0.1-0.1-0.3,0-0.4,0l-11.7,6.3c-0.2,0.1-0.3,0.3-0.2,0.5C518.4,763.6,521,768.6,524.4,773L524.4,773z"/>
<path class="st4" d="M528.7,759.6l-6.4,2.8c-0.5,0.2-1.1,0-1.3-0.5l-0.2-0.4c-0.2-0.5,0-1.1,0.5-1.3l6.4-2.8c0.5-0.2,1.1,0,1.3,0.5
	l0.2,0.4C529.5,758.8,529.2,759.4,528.7,759.6z"/>
<path class="st4" d="M531.1,763.9l-6.4,2.8c-0.5,0.2-1.1,0-1.3-0.5l-0.2-0.4c-0.2-0.5,0-1.1,0.5-1.3l6.4-2.8c0.5-0.2,1.1,0,1.3,0.5
	l0.2,0.4C531.8,763.1,531.6,763.7,531.1,763.9z"/>
<path class="st9" d="M516.1,760.3c-1.7-1.1-2.1-3.3-1.1-5c0.1-0.2,0.2-0.3,0.4-0.5l-2.7-38.2l7.8,0.8l0.2,37.4
	c1.4,1.4,1.3,3.7-0.1,5.1C519.3,761.1,517.5,761.2,516.1,760.3L516.1,760.3z"/>
<path class="st2" d="M514.5,729.5c-0.4-0.3-0.6-0.7-0.6-1.1l-0.6-10.3c-0.1-2.3,1.6-4.2,3.9-4.4c2-0.1,3.7,1.2,4.2,3l2.5,9.2
	c0.2,0.8-0.3,1.6-1.1,1.8l-7.1,1.9C515.3,729.8,514.8,729.7,514.5,729.5z"/>
<polygon class="st9" points="501.2,807.3 497.1,807.3 495.2,791.6 501.2,791.6 "/>
<path class="st7" d="M494.2,806.2h7.9l0,0v5l0,0h-12.9l0,0l0,0C489.2,808.4,491.5,806.2,494.2,806.2L494.2,806.2z"/>
<polygon class="st9" points="516.6,807.3 512.5,807.3 510.5,791.6 516.6,791.6 "/>
<path class="st7" d="M509.6,806.2h7.9l0,0v5l0,0h-12.9l0,0l0,0C504.6,808.4,506.8,806.2,509.6,806.2L509.6,806.2z"/>
<path class="st7" d="M501,799.4l-4.5-0.2c-0.8,0-1.4-0.7-1.4-1.5c-1.2-18.3-2.8-38-0.3-45.6c0-0.8,0.7-1.5,1.5-1.5
	c0.1,0,0.2,0,0.2,0l18,2.6c0.7,0.1,1.3,0.7,1.3,1.5c2.3,9,2.4,25.3,2.3,42.2c0,0.8-0.7,1.5-1.5,1.5l0,0h-4.9c-0.7,0-1.4-0.5-1.5-1.3
	l-3-19c-0.1-0.6-0.7-1.1-1.3-1c-0.5,0.1-0.9,0.5-1,1l-2.4,19.9C502.5,798.8,501.9,799.4,501,799.4
	C501.1,799.4,501.1,799.4,501,799.4z"/>
<path class="st2" d="M504.2,754.7c-4-2.2-7.1-2.8-8.6-2.9c-0.4,0-0.8-0.2-1-0.6c-0.3-0.3-0.4-0.7-0.3-1.1l4.3-32.1
	c0.5-3.8,3-7.1,6.5-8.7c3.4-1.6,7.4-1.3,10.5,0.8c0.1,0.1,0.3,0.2,0.4,0.3c3.6,2.6,5.3,7.2,4.2,11.5c-2.6,10.8-3.6,28.6-3.7,32
	c0,0.6-0.4,1.1-1,1.3c-1.6,0.6-3.3,0.9-5.1,0.9C508.3,756.3,506.1,755.8,504.2,754.7z"/>
<circle class="st9" cx="507.8" cy="696.8" r="8.2"/>
<path class="st7" d="M513.6,703.3c-1.5,1.6-4.4,0.8-4.6-1.5c0-0.2,0-0.3,0-0.5c0.1-1,0.7-1.9,0.5-2.9c0-0.3-0.1-0.5-0.3-0.7
	c-1.2-1.6-4.1,0.7-5.2-0.7c-0.7-0.9,0.1-2.3-0.4-3.3c-0.7-1.3-2.8-0.7-4.2-1.4c-1.5-0.8-1.4-3.1-0.4-4.5c1.2-1.7,3.3-2.6,5.3-2.7
	s4.1,0.4,6,1.2c2.2,0.8,4.3,2,5.7,3.9c1.6,2.3,1.8,5.5,1,8.2C516.6,699.9,514.9,701.9,513.6,703.3z"/>
<path class="st5" d="M520.1,711.2c-0.1-0.7-1.4-1.6-3.1-2.3c-5.7-2.3-12.3-1.8-17.5,1.5c-0.4,0-0.7,0.3-0.8,0.7l-5.9,26.2l-0.8,3.4
	l-0.5,2.3l-0.8,3.4l-0.4,1.8c-0.1,0.5,0.2,0.9,0.6,1h0.1l25.6,2.2h0.1c0.4,0,0.8-0.3,0.8-0.8l0.2-3.7l0.3-4l0.1-1.7l0.3-4
	L520.1,711.2L520.1,711.2L520.1,711.2z"/>
<path class="st9" d="M478.1,712.9c0,0.2,0.1,0.4,0.1,0.5l14.3,8.3l3.5-2l3.7,4.9l-7.5,5.3L475.9,717c-1.8,0.7-3.8-0.3-4.5-2.1
	s0.3-3.8,2.1-4.5c1.8-0.7,3.8,0.3,4.5,2.1C478,712.6,478.1,712.8,478.1,712.9L478.1,712.9z"/>
<path class="st2" d="M493,721c0-0.5,0.1-0.9,0.4-1.2l7.3-7.3c1.6-1.6,4.2-1.6,5.9,0c1.4,1.4,1.6,3.5,0.5,5.2l-5.2,8
	c-0.5,0.7-1.4,0.9-2.1,0.4l-6.2-4C493.3,721.9,493.1,721.5,493,721z"/>
<polygon class="st4" points="518.4,737.3 518.2,741.2 492,740.7 492.8,737.3 "/>
<polygon class="st4" points="518,742.9 517.8,746.9 490.7,746.4 491.5,742.9 "/>
<path class="st5" d="M508,680.9L508,680.9c-5.8,0-10.5,4.6-10.7,10.3h-2c-0.4,0-0.7,0.3-0.7,0.7v2.7c0,0.4,0.3,0.7,0.7,0.7H518
	c0.4,0,0.7-0.3,0.7-0.7v-3C518.7,685.6,513.9,680.9,508,680.9L508,680.9z"/>
<path class="st4" d="M553,811.7H315.3c-0.2,0-0.3-0.1-0.3-0.3s0.1-0.3,0.3-0.3H553c0.2,0,0.3,0.1,0.3,0.3
	C553.3,811.6,553.2,811.7,553,811.7z"/>
</svg>
