<?xml version="1.0" encoding="utf-8"?>
<!-- Generator: Adobe Illustrator 27.4.0, SVG Export Plug-In . SVG Version: 6.00 Build 0)  -->
<svg version="1.1" id="Layer_1" xmlns="http://www.w3.org/2000/svg" xmlns:xlink="http://www.w3.org/1999/xlink" x="0px" y="0px"
	 viewBox="0 0 675 840" style="enable-background:new 0 0 675 840;" xml:space="preserve">
<style type="text/css">
	.st0{fill:#F2F2F2;}
	.st1{fill:#FFFFFF;}
	.st2{fill:#3F3D56;}
	.st3{fill:#E6E6E6;}
	.st4{fill:#8EFFAD;}
	.st5{opacity:0.2;enable-background:new    ;}
	.st6{fill:#FFB8B8;}
	.st7{fill:#2F2E41;}
	.st8{fill:#CCCCCC;}
</style>
<path class="st0" d="M-0.1,554.9c-13.7-9.2-26.6-30.3-15.2-47.8c5.6-8.7,15.5-11.9,24.8-12.9c12.8-1.3,25.8,1.4,37.7,5.4
	c13.8,4.7,26.7,11.5,39.5,18.3c12.6,6.8,25.3,13.4,38.3,19.4c25.6,12,51.9,22.3,78.8,30.9c26.4,8.5,53.2,15.3,80.4,20.3
	c13.5,2.5,27.1,4.6,40.8,6.2c12.8,1.5,25.6,2.9,38.6,2.8c17-0.1,45.5-2.1,51.8-23.9c3.3-11.6-1.2-23.6-6.8-32.9
	c-6.8-11.3-16.1-20.6-25.3-29.8c-42.6-42.3-85.2-84.6-128-126.7c-10-9.9-20.1-19.6-29.3-30.2c-8.7-9.9-16.9-20.8-22.1-33.3
	c-4.5-11-7.2-24.3-2.3-36.2c4.1-9.8,12.8-16.1,22-19.8c22.7-9.1,48.6-6.2,71.2-1.2c28,6.2,54.7,16.7,82.7,23
	c22.6,5.1,47.8,7.8,70.8,0.1c8.8-3,17.5-7.8,23.4-15.7c5.8-7.7,7.8-17.4,6.9-26.8c-1.1-11.1-5.7-21.4-11.2-30.5
	c-6.6-10.6-14.6-20.2-23.9-28.6c-19.8-18.3-42.6-32.7-63.8-49.2c-10.4-8.1-20.8-16.5-29.4-26.7c-7.3-8.6-14.7-19.4-15.9-31.5
	c-2.5-25,27.7-27.5,43.9-26.6c11,0.8,22,2.3,32.8,4.7c2.3,0.5,2.8-3.5,0.5-3.9c-11.4-2.3-22.9-4.2-34.5-4.7c-9.8-0.4-20.3,0-29.7,4
	c-7.9,3.4-14.6,10-16.4,19c-2.1,10.7,2.7,21.4,7.9,29.9c6.8,11.2,16.1,20.3,25.8,28.6c10.2,8.8,21.1,16.7,31.9,24.6
	c21.7,15.7,44.7,31.2,61.3,53.2c11.6,15.4,25.4,41.1,11.8,60.9c-6,8.8-15.8,13.7-25.4,16.4c-11.6,3.3-23.6,3.9-35.3,3.3
	c-54.6-2.9-103.3-35.1-158.8-31.7c-18.9,1.1-43.6,7-52,28.2c-4.4,11-3,23.2,0.5,33.7c4.2,12.7,11.7,23.7,19.8,33.7
	c8.6,10.6,18.2,20.2,27.8,29.7c10.7,10.6,21.4,21.2,32.1,31.8l65,64.3l32.3,32c9.9,9.8,20.1,19.4,27.9,31.1
	c6.4,9.6,12.9,23.8,7.1,36c-4.6,9.7-15.4,13.7-24.7,15.7c-11.9,2.5-24.2,2.4-36.1,1.6c-13.8-0.9-27.5-2.6-41.1-4.6
	c-28-4.1-55.7-10.1-82.9-17.9c-27.3-7.8-54.1-17.3-80.2-28.5c-13.2-5.7-26.2-11.8-39-18.3c-13.2-6.7-26.1-14.2-39.5-20.5
	c-12.1-5.7-24.8-10.4-38.1-12.5C18,489.2,5.6,489-5.2,493.9c-7.7,3.4-13.7,10-16.3,18c-2.4,8.1-2,16.8,1.3,24.6
	c3.7,8.8,9.9,16.4,17.9,21.6C-0.4,559.4,1.9,556.2-0.1,554.9L-0.1,554.9z"/>
<path class="st1" d="M674.9,128h-301V26h301V128z"/>
<rect x="191" y="345.6" class="st1" width="290" height="195.6"/>
<path class="st2" d="M482,542.3H190V344.6h292V542.3z M192,540.3h288V346.6H192V540.3z"/>
<path class="st3" d="M215.5,498.4h241V361.2h-241V498.4z"/>
<circle class="st4" cx="286.4" cy="422.3" r="24.2"/>
<path class="st2" d="M362.1,496.8H243.7c-0.1,0-0.3,0-0.4,0l56-97.1c1.1-1.9,3.5-2.6,5.3-1.5c0.6,0.4,1.1,0.9,1.5,1.5l37.6,65.1
	l1.8,3.1L362.1,496.8z"/>
<polygon class="st5" points="362.1,496.8 321.7,496.8 341.5,467.9 343,465.8 343.7,464.8 345.5,467.9 "/>
<path class="st2" d="M428.1,496.8H325.6l19.9-28.8l1.4-2.1l25.9-37.6c1.8-2.3,5.1-2.6,7.4-0.8c0.1,0.1,0.3,0.2,0.4,0.4
	c0.1,0.1,0.3,0.3,0.4,0.5L428.1,496.8z"/>
<rect x="291.9" y="164" class="st1" width="295" height="143"/>
<circle class="st3" cx="339.9" cy="211.3" r="21.3"/>
<path class="st3" d="M389.2,197.1c-2,0-3.6,1.6-3.6,3.6c0,2,1.6,3.6,3.6,3.6l0,0h167.7c2,0,3.6-1.6,3.5-3.6c0-2-1.6-3.5-3.5-3.5
	H389.2z"/>
<path class="st3" d="M389.2,218.4c-2,0-3.6,1.6-3.6,3.5c0,2,1.6,3.6,3.5,3.6l0,0h72.2c2,0,3.6-1.6,3.6-3.6c0-2-1.6-3.6-3.6-3.6l0,0
	H389.2z"/>
<path class="st3" d="M323.5,252.5c-2.7,0-4.9,1.6-4.9,3.6s2.2,3.6,4.9,3.6h231.3c2.7,0,4.9-1.6,4.9-3.6s-2.2-3.6-4.9-3.6H323.5z"/>
<path class="st3" d="M323.5,273.9c-2.7,0-4.9,1.6-4.9,3.6s2.2,3.6,4.9,3.6h231.3c2.7,0,4.9-1.6,4.9-3.6s-2.2-3.6-4.9-3.6H323.5z"/>
<path class="st3" d="M589.9,310h-301V161h301V310z M294.9,304h289V167h-289V304z"/>
<circle class="st3" cx="424.9" cy="76.3" r="21.3"/>
<path class="st3" d="M474.2,62.1c-2,0-3.6,1.6-3.6,3.6s1.6,3.6,3.6,3.6h167.7c2,0,3.6-1.6,3.5-3.6c0-2-1.6-3.5-3.5-3.5H474.2z"/>
<path class="st3" d="M474.2,83.4c-2,0-3.6,1.6-3.6,3.5c0,2,1.6,3.6,3.5,3.6c0,0,0,0,0,0h72.2c2,0,3.6-1.6,3.6-3.6s-1.6-3.6-3.6-3.6
	H474.2z"/>
<path class="st3" d="M674.9,128h-301V26h301V128z M379.9,122h289V32h-289V122z"/>
<polygon class="st6" points="197.4,785.6 213.6,785.6 221.3,723.2 197.4,723.2 "/>
<path class="st7" d="M244.8,800.6l-50.9,0l0,0l0-19.7l0,0l36,0c8.2,0,14.9,6.7,14.9,14.9L244.8,800.6L244.8,800.6z"/>
<polygon class="st6" points="132.7,785.6 148.9,785.6 156.6,723.2 132.7,723.2 "/>
<path class="st7" d="M180.1,800.6l-50.9,0l0,0l0-19.7l0,0l36,0c8.2,0,14.9,6.7,14.9,14.9L180.1,800.6L180.1,800.6z"/>
<path class="st6" d="M225.6,605.6c-5-4.7-5.2-12.5-0.6-17.5c0.5-0.5,1-1,1.6-1.5l-6.9-27.4l15.6-8.3l9.2,38.9
	c3.7,5.8,2.1,13.5-3.7,17.2C236.1,610.2,229.7,609.6,225.6,605.6z"/>
<polygon class="st7" points="126.9,557.7 128.2,650.1 129.6,771.6 158.6,768.9 173.1,601.3 191.6,768.9 221.6,768.9 224.6,599.9 
	214.1,563 "/>
<path class="st4" d="M183.8,570.1c-31.6,0-60.7-14.3-61.1-14.5l-0.3-0.2l-2.7-63.6c-0.8-2.2-15.9-46.6-18.5-60.7
	c-2.6-14.3,35.1-26.8,39.6-28.3l1-11.5l42.2-4.5l5.3,14.7l15.1,5.7c3.6,1.3,5.5,5.1,4.6,8.8l-8.4,34.2l16.6,113.2l-0.4,0.2
	C206.3,568.3,194.9,570.1,183.8,570.1z"/>
<path class="st4" d="M221.5,577.2l-14.6-60.3L191,444.2l8.1-36.3h6.9c0.1,0,12.6,0.2,15.3,16.4c2.6,15.7,10.5,65.5,10.6,66
	l13.3,85.2L221.5,577.2z"/>
<path class="st6" d="M158.8,567c-0.3-6.8-6.1-12.1-13-11.8c-0.7,0-1.5,0.1-2.2,0.3l-16.4-23.1l-16.4,6.5l23.6,32.3
	c2,6.6,8.9,10.3,15.5,8.4C155.5,578,159.1,572.8,158.8,567L158.8,567z"/>
<path class="st4" d="M126.9,565.3L77.4,501l18.6-58.3c1.4-14.7,10.5-18.8,10.9-18.9l0.6-0.3l16.2,43.1l-11.9,31.6l29.1,49
	L126.9,565.3z"/>
<circle class="st6" cx="164.7" cy="349" r="30.4"/>
<path class="st7" d="M185.1,334.2c-3.1,3.7-8.5,4.8-13.4,5.2c-10,0.9-24.5-0.5-34.2-2.8c-0.7,6.7,1.2,14-2.8,19.6
	c-1.9-6.7-2.9-13.6-3.2-20.6c-0.1-3-0.1-6.1,1.1-8.8s3.9-5.1,6.9-5.1c-2.3-1.7-4.9-2.9-7.7-3.3l9.6-4.8L139,311l17.5-1.1l-5.1-3.2
	c7.6-1,15.3-1.3,23-0.7c3.6,0.3,7.3,0.8,10.2,2.8s4.6,6.2,2.8,9.2c4.6,0.7,8.4,3.8,10.2,8.1c1.3,3.3,1.2,6.9,0.8,10.4
	c-0.7,5.6-1.9,11-3.8,16.3"/>
<path class="st8" d="M395,802.5H14c-0.6,0-1-0.4-1-1s0.4-1,1-1h381c0.6,0,1,0.4,1,1S395.5,802.5,395,802.5z"/>
</svg>
