<?xml version="1.0" encoding="utf-8"?>
<!-- Generator: Adobe Illustrator 27.4.0, SVG Export Plug-In . SVG Version: 6.00 Build 0)  -->
<svg version="1.1" id="Layer_1" xmlns="http://www.w3.org/2000/svg" xmlns:xlink="http://www.w3.org/1999/xlink" x="0px" y="0px"
	 viewBox="0 0 525.6 580.3" style="enable-background:new 0 0 525.6 580.3;" xml:space="preserve">
<style type="text/css">
	.st0{fill:#FFFFFF;}
	.st1{fill:#343A40;}
	.st2{fill:#FFB6B6;}
	.st3{fill:#E6E6E6;}
	.st4{fill:#FFB8B8;}
	.st5{fill:#69431A;}
	.st6{fill:#8EFFAD;}
	.st7{fill:#CCCCCC;}
</style>
<path class="st0" d="M291.6,550.7c29.1-17.9,50.9-50.9,47.5-84.9c-26.5,26.1-61.4,41.9-98.5,44.8c-14.3,1-30.3,0.7-40.7,10.6
	c-6.5,6.1-9.4,15.3-9.8,24.2c-0.4,8.9,1.5,17.8,3.4,26.5l-0.6,2.2C227.1,573.6,262.4,568.5,291.6,550.7z"/>
<path class="st1" d="M338.4,465.7c-11.4,25.9-30.7,47.5-55.1,61.8c-5.2,3.2-10.9,5.5-16.8,6.9c-5.8,1.2-11.9,0.8-17.5-1.1
	c-5.3-1.7-10.5-4-16.1-4.4c-5.8-0.3-11.5,1.9-15.5,6c-5.2,4.9-8.3,11.4-11.1,17.9c-3.1,7.2-6.2,14.7-12.3,19.9
	c-0.7,0.6,0.3,1.7,1,1.1c10.6-9.1,12.1-24.1,20.5-34.7c3.9-5,9.4-8.8,15.9-8.8c5.7,0,11.1,2.4,16.4,4.2c5.5,2,11.3,2.6,17,1.8
	c6-1.1,11.7-3.2,17-6.2c12-6.6,22.8-15.1,32.2-25.1c10.7-11.4,19.4-24.5,25.8-38.8C340.2,465.3,338.8,464.8,338.4,465.7L338.4,465.7
	z"/>
<path class="st1" d="M291.4,523.4c6.1,7.8,17,10,25.6,5.2c0.8-0.5,0.2-1.8-0.7-1.3c-8.1,4.5-18.2,2.4-23.8-4.9
	C291.9,521.6,290.8,522.7,291.4,523.4L291.4,523.4z"/>
<path class="st1" d="M251.5,534.6c1.1-9.7,5.8-18.7,13.2-25.1c0.7-0.6-0.3-1.7-1-1.1c-7.7,6.7-12.6,16-13.7,26.2
	C249.9,535.5,251.4,535.5,251.5,534.6L251.5,534.6z"/>
<path class="st1" d="M322.9,492.9c-2.9-2.5-4.4-6.3-4-10.1c0.1-1-1.4-1-1.5-0.1c-0.5,4.2,1.2,8.4,4.4,11.2c0.3,0.3,0.8,0.3,1.1,0
	C323.2,493.7,323.2,493.2,322.9,492.9L322.9,492.9z"/>
<path class="st0" d="M243.1,401c-0.1,0.6-0.2,1.2-0.3,1.8c-1.3,8.1-3.2,16-5.7,23.8c-0.2,0.6-0.4,1.2-0.6,1.8
	c-6.3,18.6-16.1,35.9-28.7,50.9c-5,6-10.5,11.6-16.4,16.7c-8.1,7.1-17.5,14.2-22.6,23.3c-0.5,0.9-1,1.9-1.5,2.9l23.1,50.8
	c0.1,0.1,0.2,0.2,0.3,0.3l0.8,2.1c0.3-0.2,0.7-0.5,1-0.7c0.2-0.1,0.4-0.3,0.6-0.4c0.1-0.1,0.2-0.2,0.4-0.3c0,0,0.1-0.1,0.1-0.1
	c0.1-0.1,0.2-0.2,0.3-0.2c1.8-1.5,3.7-2.9,5.5-4.4c0,0,0,0,0,0c13.9-11.3,27-23.9,37.7-38.1c0.3-0.4,0.7-0.9,1-1.3
	c4.8-6.4,9.1-13.2,12.8-20.3c2-3.9,3.8-7.9,5.4-12c4.1-10.6,6.6-21.7,7.3-33c1.3-22.6-4.6-45.3-19.3-62.1
	C243.8,401.9,243.5,401.5,243.1,401z"/>
<path class="st1" d="M242.5,401.4c6.5,27.6,4.1,56.5-6.8,82.6c-2.2,5.7-5.4,10.9-9.3,15.6c-3.9,4.5-9,7.8-14.6,9.6
	c-5.2,1.8-10.8,3.1-15.5,6.1c-4.8,3.2-8,8.4-8.8,14.1c-1.2,7.1,0.3,14.1,1.9,21c1.8,7.6,3.9,15.5,2.2,23.3c-0.2,0.9,1.3,1.2,1.5,0.3
	c3-13.6-4.8-26.5-4.5-40.1c0.1-6.3,2.2-12.6,7.4-16.6c4.6-3.4,10.3-4.7,15.6-6.5c5.5-1.7,10.6-4.8,14.7-8.9
	c4.1-4.5,7.4-9.6,9.8-15.2c5.6-12.5,9.1-25.8,10.6-39.4c1.7-15.5,0.8-31.3-2.8-46.5C243.7,400,242.3,400.5,242.5,401.4z"/>
<path class="st1" d="M239.7,475.8c9.6,2.5,19.6-2.2,23.6-11.2c0.4-0.9-1-1.5-1.4-0.7c-3.8,8.4-13.1,12.8-22,10.4
	C239,474.1,238.8,475.6,239.7,475.8L239.7,475.8z"/>
<path class="st1" d="M214.6,508.7c-5-8.4-6.6-18.4-4.6-28c0.2-0.9-1.3-1.2-1.5-0.3c-2.1,10-0.4,20.4,4.8,29.1
	C213.8,510.4,215.1,509.5,214.6,508.7z"/>
<path class="st1" d="M246.5,432.4c-3.8-0.2-7.3-2.3-9.3-5.7c-0.5-0.8-1.7,0-1.2,0.9c2.2,3.7,6,6,10.2,6.3c0.4,0.1,0.8-0.2,0.9-0.6
	C247.2,432.9,246.9,432.5,246.5,432.4L246.5,432.4z"/>
<polygon class="st2" points="102.7,565.5 117.3,565.5 124.3,509 102.7,509 "/>
<path class="st3" d="M99,560.7l4.1,0l16.1-6.5l8.6,6.5h0c10.1,0,18.4,8.2,18.4,18.4v0.6l-47.2,0L99,560.7z"/>
<polygon class="st2" points="170.7,565.5 185.3,565.5 192.3,509 170.7,509 "/>
<path class="st3" d="M167,560.7l4.1,0l16.1-6.5l8.6,6.5h0c10.1,0,18.4,8.2,18.4,18.4v0.6l-47.2,0L167,560.7z"/>
<polygon class="st3" points="91,204 110.4,263.5 171.4,261.5 152.6,204 "/>
<path class="st3" d="M182.4,256.5l-115,3l2,56c0,0-2,15,2,19s6,4,4,11c-2,7,8.6,18.4,7.3,19.7s-4.3,8.3-4.3,8.3l10,57
	c0,0,7,99,9,101s4,0,2,5s-4,3-2,5c1.8,1.9,3.4,3.9,5,6h24.2c0,0,1.8-10,1.8-11s2-7,2-8s-1.8-2.8-1.8-2.8c-0.6-2-1-4.1-1.2-6.2
	c0-2-6-79-6-79l12-100l29,98c0,0,0,86,2,88s2,1,1,5s-5,3-2,6s4-2,3,3l-1,5l30,0.4c0,0,4-8.4,2-11.4s-1.9-2.2,0.6-7.1
	c2.4-4.9,3.4-5.9,2.4-6.9s-1-6.3-1-6.3l-5-95.7c0,0-1-101-1-104c-0.1-1.5,0.2-3.1,0.8-4.5v-4.1l-3.8-14.4L182.4,256.5z"/>
<path class="st3" d="M171.9,111l-35-13l-58,4l-13.4,6.3c-9.7,4.5-15.1,15.1-13,25.7L69.9,220l-11,85c0,0,54.5,26.5,71.5-42.5l6-26
	c0,0,2,80,59,63c0,0-1-16-2-22s-3-6-4-9s-3,0-1-6s-16-48-16-48L171.9,111z"/>
<polygon class="st0" points="125.4,177.5 88,101.4 97.4,84.5 127.7,84.5 139.7,99 "/>
<path class="st4" d="M106.7,260.4c-6.2,0.4-11.4-4.3-11.8-10.5c0-0.7,0-1.3,0.1-2l-35.7-17.4L77.1,220l31.2,18.1
	c6.1,1.1,10.1,7,9,13.1C116.3,256.3,111.9,260.1,106.7,260.4L106.7,260.4z"/>
<path class="st3" d="M33.5,217.9c-1.7-2.1-3.7-16.6,0-20c3.1-2.9,2.5-4.2,0.5-7.2c-1.7-2.6,11.6-50.7,19.3-73.1
	c2.2-6.5,9.3-9.9,15.8-7.7c5.9,2,9.3,8,8.2,14.1c2.7,28.6-1.1,48.1-12.1,61.4l33.9,44.9l-6.2,22.8C92.7,253.1,35,219.8,33.5,217.9z"
	/>
<circle class="st4" cx="112.9" cy="43" r="31"/>
<path class="st5" d="M145.7,20.5c-0.8-7.4-11.5-14.8-30.5-19.8C96.3-4.2,86.4,17.2,86.4,17.2c-13.2,6.6-5.4,41.6-1.2,38.3
	c4.1-3.3,7.8,2.1,7.8,2.1l3-27.4c4.3,3.3,9.2,6.1,14.5,5.3l-6.4-6.3c6.1,2.6,12.2,5.3,18.3,7.9c-2-2.8-4-5.5-6-8.3
	c0.2,0,0.4,0,0.6,0c2.7,2.3,5.9,4,9.2,5.2c4,1.1,8.8,0.5,11.5-2.6c0.7-0.9,1.3-1.9,1.6-2.9c5,3.4,6,10.7,6,10.7
	S146.5,27.9,145.7,20.5z"/>
<circle class="st6" cx="118.6" cy="189.3" r="53.6"/>
<path class="st4" d="M128.3,225.6c3.4-5.2,10.3-6.6,15.5-3.2c0.5,0.4,1.1,0.8,1.5,1.2l35.2-18.3l-2.1,20.5l-33.1,14.2
	c-4.5,4.2-11.7,3.9-15.9-0.6C125.9,235.6,125.4,229.9,128.3,225.6z"/>
<path class="st3" d="M150,239.1l-6.2-22.8l30.9-29.9c-11-13.2-14.8-32.7-12.1-61.4c-1.3-6.7,3.1-13.3,9.8-14.6
	c6.1-1.2,12.1,2.3,14.1,8.2c7.7,22.4,16.4,49.9,14.3,54c-0.3,0.6-0.5,1-0.8,1.5c-1.9,3.7-1.9,3.7,0,6c0.2,0.3,0.5,0.6,0.8,1
	c0.7,0.9,1.5,1.8,2.2,2.7c2.3,2.7,4.6,5.3,2.8,7.9c-2,3-2.7,4.3,0.5,7.2c3.7,3.4,1.8,17.9,0,20c-1.6,1.9-46.7,17-55.8,20L150,239.1z
	"/>
<path class="st7" d="M296.4,580.3H0.9c-0.5,0-0.9-0.4-0.9-0.9s0.4-0.9,0.9-0.9h295.5c0.5,0,0.9,0.4,0.9,0.9
	C297.3,579.9,296.9,580.3,296.4,580.3C296.4,580.3,296.4,580.3,296.4,580.3z"/>
<path class="st3" d="M517.1,88.8H409c-4.7,0-8.5-3.8-8.5-8.5V26.5c0-4.7,3.8-8.5,8.5-8.5h108.1c4.7,0,8.5,3.8,8.5,8.5v53.8
	C525.6,85,521.8,88.8,517.1,88.8z"/>
<path class="st3" d="M499.3,117h-72.8c-4.5,0-8.1-3.6-8.1-8.1c0-4.5,3.6-8.1,8.1-8.1h72.8c4.5,0,8.1,3.6,8.1,8.1
	C507.4,113.4,503.8,117,499.3,117C499.3,117,499.3,117,499.3,117z"/>
<path class="st3" d="M517.1,243.2H409c-4.7,0-8.5-3.8-8.5-8.5v-53.8c0-4.7,3.8-8.5,8.5-8.5h108.1c4.7,0,8.5,3.8,8.5,8.5v53.8
	C525.6,239.4,521.8,243.2,517.1,243.2z"/>
<path class="st3" d="M499.3,269.5h-72.8c-4.5,0-8.1-3.6-8.1-8.1s3.6-8.1,8.1-8.1h72.8c4.5,0,8.1,3.6,8.1,8.1
	S503.8,269.5,499.3,269.5z"/>
<path class="st3" d="M517.1,396.5H409c-4.7,0-8.5-3.8-8.5-8.5v-53.8c0-4.7,3.8-8.5,8.5-8.5h108.1c4.7,0,8.5,3.8,8.5,8.5V388
	C525.6,392.7,521.8,396.5,517.1,396.5z"/>
<path class="st3" d="M499.3,423h-72.8c-4.5,0-8.1-3.6-8.1-8.1c0-4.5,3.6-8.1,8.1-8.1h72.8c4.5,0,8.1,3.6,8.1,8.1
	C507.4,419.4,503.8,423,499.3,423C499.3,423,499.3,423,499.3,423z"/>
<path class="st0" d="M112.3,214.4c-0.8,0-1.5-0.2-2.2-0.6c-1.4-0.8-2.3-2.3-2.3-3.9v-37.2c0-2.5,2-4.5,4.5-4.5
	c0.9,0,1.7,0.2,2.4,0.7l35.3,18.6c2.1,1.3,2.7,4.1,1.4,6.2c-0.4,0.6-0.8,1-1.4,1.4l-35.3,18.6C114,214.1,113.1,214.4,112.3,214.4z"
	/>
<path class="st1" d="M451.7,71.9c-0.6,0-1.2-0.2-1.8-0.5c-1.2-0.6-1.9-1.9-1.9-3.2v-30c0-2,1.6-3.6,3.6-3.6c0.7,0,1.4,0.2,1.9,0.6
	l28.5,15c1.7,1.1,2.2,3.3,1.1,5c-0.3,0.5-0.7,0.8-1.1,1.1l-28.5,15C453,71.7,452.4,71.9,451.7,71.9z"/>
<path class="st1" d="M451.4,226.9c-0.6,0-1.2-0.2-1.8-0.5c-1.2-0.6-1.9-1.9-1.9-3.2v-30c0-2,1.6-3.6,3.6-3.6c0.7,0,1.4,0.2,1.9,0.6
	l28.5,15c1.7,1.1,2.2,3.3,1.1,5c-0.3,0.5-0.7,0.8-1.1,1.1l-28.5,15C452.8,226.7,452.1,226.9,451.4,226.9z"/>
<path class="st1" d="M451.2,381.9c-0.6,0-1.2-0.2-1.8-0.5c-1.2-0.6-1.9-1.9-1.9-3.2v-30c0-2,1.6-3.6,3.6-3.6c0.7,0,1.4,0.2,1.9,0.6
	l28.5,15c1.7,1.1,2.2,3.3,1.1,5c-0.3,0.5-0.7,0.8-1.1,1.1l-28.5,15C452.5,381.7,451.8,381.9,451.2,381.9z"/>
</svg>
